<?xml version="1.0" encoding="UTF-8"?>
<svg width="18px" height="18px" viewBox="0 0 18 18" version="1.1" xmlns="http://www.w3.org/2000/svg" xmlns:xlink="http://www.w3.org/1999/xlink">
    <!-- Generator: Sketch 47.1 (45422) - http://www.bohemiancoding.com/sketch -->
    <title>icons/at</title>
    <desc>Created with Sketch.</desc>
    <defs></defs>
    <g id="CMS" stroke="none" stroke-width="1" fill="none" fill-rule="evenodd">
        <g id="LOGIN" transform="translate(-464.000000, -394.000000)" stroke="#FFFFFF" stroke-width="0.5" fill="#000000" fill-rule="nonzero">
            <g id="Group" transform="translate(458.000000, 395.000000)">
                <g id="at" transform="translate(7.000000, 0.000000)">
                    <path d="M13.7904919,2.01713586 C12.3185841,0.672378621 10.4877547,0 8.30129656,0 C6.00288125,0 4.04363038,0.76376989 2.4268368,2.29457364 C0.810043219,3.8253774 0,5.72827417 0,8.00652795 C0,10.1901265 0.770528915,12.0669115 2.30829389,13.6401469 C3.85264458,15.2133823 5.9271455,16 8.53838238,16 C10.1123688,16 11.6567195,15.6801306 13.1714345,15.0371277 C13.6653632,14.8282334 13.9057419,14.2668299 13.7048775,13.7739698 L13.7048775,13.7739698 C13.4974275,13.2647899 12.9112986,13.0297838 12.4009055,13.245206 C11.0837621,13.8066095 9.79296151,14.0873113 8.53508952,14.0873113 C6.53303149,14.0873113 4.98209508,13.4834761 3.8822803,12.2725418 C2.78575839,11.0648715 2.235851,9.64504284 2.235851,8.01631987 C2.235851,6.24724602 2.82527269,4.77192982 4.00082321,3.5871073 C5.17308088,2.40554876 6.61864581,1.81150551 8.33093229,1.81150551 C9.90821157,1.81150551 11.2418193,2.29783762 12.3284626,3.27050184 C13.415106,4.24316605 13.9584277,5.46715626 13.9584277,6.94247246 C13.9584277,7.95104039 13.7081704,8.79314565 13.2109488,9.4622603 C12.7137271,10.1346389 12.1967483,10.4675643 11.6600123,10.4675643 C11.3702408,10.4675643 11.225355,10.3141575 11.225355,10.00408 C11.225355,9.75275398 11.2451122,9.45899633 11.2813336,9.11954304 L11.8938053,4.15503876 L9.7863758,4.15503876 L9.65136859,4.64137087 C9.11463264,4.20726234 8.52521095,3.98857609 7.88639638,3.98857609 C6.87219593,3.98857609 6.00288125,4.39004488 5.28174522,5.18971848 C4.55731632,5.98939208 4.19839473,7.02080783 4.19839473,8.28070175 C4.19839473,9.51121991 4.51780202,10.5067319 5.15990945,11.2607099 C5.80201688,12.0179519 6.57254579,12.3933089 7.47478905,12.3933089 C8.28153941,12.3933089 8.96974686,12.0571195 9.54270426,11.3880049 C9.97406874,12.0310078 10.6095905,12.3508772 11.4492694,12.3508772 C12.6840914,12.3508772 13.7509776,11.8188494 14.649928,10.75153 C15.5488784,9.6874745 16,8.40146879 16,6.89677683 C16,4.99061608 15.2656925,3.3618931 13.7904919,2.01713586 Z M8.93681828,9.52753978 C8.56472525,10.0236638 8.12018934,10.2749898 7.60321054,10.2749898 C7.25087467,10.2749898 6.96768882,10.0922073 6.75365302,9.72664219 C6.53632435,9.36107711 6.42766001,8.90738474 6.42766001,8.3623011 C6.42766001,7.68992248 6.57913151,7.14810282 6.8820745,6.73684211 C7.18501749,6.3255814 7.56040338,6.11668707 8.00823215,6.11668707 C8.39678946,6.11668707 8.74253962,6.27009384 9.04548261,6.58017136 C9.3484256,6.89024888 9.4998971,7.30150959 9.4998971,7.81721746 C9.49660424,8.46022032 9.3089113,9.02815177 8.93681828,9.52753978 Z" id="icons/at"></path>
                </g>
            </g>
        </g>
    </g>
</svg>