<?xml version="1.0" encoding="UTF-8"?>
<svg width="14px" height="11px" viewBox="0 0 14 11" version="1.1" xmlns="http://www.w3.org/2000/svg" xmlns:xlink="http://www.w3.org/1999/xlink">
    <!-- Generator: Sketch 47.1 (45422) - http://www.bohemiancoding.com/sketch -->
    <title>icon/glasses</title>
    <desc>Created with Sketch.</desc>
    <defs></defs>
    <g id="CMS" stroke="none" stroke-width="1" fill="none" fill-rule="evenodd">
        <g id="Menu" transform="translate(-928.000000, -38.000000)" fill-rule="nonzero" fill="#497DC7">
            <g id="icon/glasses" transform="translate(928.000000, 38.000000)">
                <path d="M13.3385558,6.98822411 L11.5456496,1.14436592 C11.2930885,0.292433395 10.4105124,-0.189093682 9.58066887,0.0701901286 C9.38361571,0.132874127 9.26982445,0.346569575 9.33088318,0.548867933 C9.3919419,0.751166291 9.60009664,0.86798647 9.7971498,0.805302471 C10.2328871,0.668537384 10.6936029,0.92212265 10.8268219,1.36945846 L10.8268219,1.37230773 L12.1090551,5.55788925 C11.7010718,5.32139962 11.2320298,5.1874838 10.7324584,5.1874838 C9.29480302,5.1874838 8.1069333,6.30439868 7.9459603,7.73473355 L5.58687324,7.73473355 C5.40369707,6.32719286 4.22692894,5.23877071 2.80592591,5.23877071 C2.30357913,5.23877071 1.83176172,5.3755358 1.42377843,5.61202543 L2.72266401,1.37230773 L2.72266401,1.36945846 C2.85588304,0.92212265 3.31659887,0.668537384 3.75233613,0.805302471 C3.94938928,0.86798647 4.16031942,0.751166291 4.21860275,0.548867933 C4.27966147,0.346569575 4.16587021,0.130024854 3.96881706,0.0701901286 C3.13897349,-0.189093682 2.25917279,0.292433395 2.0038363,1.14436592 L0.21648093,6.99392266 C0.210930137,7.0110183 0.208154741,7.02526466 0.205379344,7.04236029 C0.0749357067,7.37572519 0,7.74043209 0,8.11938535 C0,9.70643022 1.26003003,11 2.80592591,11 C4.22692894,11 5.40369707,9.91157785 5.58687324,8.50403716 L7.95983729,8.50403716 C8.16521663,9.8859344 9.33088318,10.9487131 10.7324584,10.9487131 C12.2783543,10.9487131 13.5383843,9.65514331 13.5383843,8.06809845 C13.5411597,7.68629591 13.4689994,7.32158901 13.3385558,6.98822411 Z M2.8087013,10.2306964 C1.67356412,10.2306964 0.752132463,9.28473787 0.752132463,8.11938535 C0.752132463,6.95403284 1.67356412,6.00807432 2.8087013,6.00807432 C3.94383849,6.00807432 4.86527014,6.95403284 4.86527014,8.11938535 C4.86527014,9.28473787 3.94106309,10.2306964 2.8087013,10.2306964 Z M10.7352338,10.1794095 C9.60009664,10.1794095 8.67866499,9.23345096 8.67866499,8.06809845 C8.67866499,6.90274593 9.60287204,5.95678742 10.7352338,5.95678742 C11.8675956,5.95678742 12.7918027,6.90274593 12.7918027,8.06809845 C12.7918027,9.23345096 11.870371,10.1794095 10.7352338,10.1794095 Z" id="Shape"></path>
            </g>
        </g>
    </g>
</svg>