<?xml version="1.0" encoding="UTF-8"?>
<svg width="17px" height="24px" viewBox="0 0 17 24" version="1.1" xmlns="http://www.w3.org/2000/svg" xmlns:xlink="http://www.w3.org/1999/xlink">
    <!-- Generator: Sketch 47.1 (45422) - http://www.bohemiancoding.com/sketch -->
    <title>icons/lock</title>
    <desc>Created with Sketch.</desc>
    <defs></defs>
    <g id="CMS" stroke="none" stroke-width="1" fill="none" fill-rule="evenodd">
        <g id="LOGIN" transform="translate(-466.000000, -467.000000)" fill-rule="nonzero" fill="#000000">
            <g id="Group" transform="translate(458.000000, 467.000000)">
                <g id="icons/lock" transform="translate(8.000000, 0.000000)">
                    <path d="M14.3211113,8.81559375 L14.3211113,5.24249375 C14.3211113,2.35178125 12.1301859,0 9.43725804,0 L7.56282311,0 C4.86981407,0 2.6788887,2.35178125 2.6788887,5.24249375 L2.6788887,8.8155125 C1.03086617,10.419225 0,12.6936563 0,15.2125688 C8.11513951e-05,20.0579938 3.81314175,24 8.50004058,24 C13.1869394,24 17,20.0579938 17,15.21265 C17,12.6937375 15.969215,10.4193063 14.3211113,8.81559375 Z M4.30199776,7.571575 L4.30199776,5.242575 C4.30199776,3.24780625 5.76475165,1.62508125 7.56290427,1.62508125 L9.43733919,1.62508125 C11.2354106,1.62508125 12.6982457,3.2478875 12.6982457,5.242575 L12.6982457,7.571575 C12.4767024,7.44149375 12.2496408,7.32270625 12.018197,7.2139125 C12.0099196,7.2100125 12.0017233,7.20586875 11.9934458,7.20196875 C11.9610664,7.18685625 11.9284436,7.172475 11.8959019,7.15776875 C11.8475356,7.1359125 11.7989259,7.11438125 11.7501539,7.09341875 C11.7272693,7.08366875 11.7044657,7.07391875 11.6814999,7.06433125 C11.609194,7.034025 11.5364823,7.00469375 11.4632838,6.97641875 C10.7093873,6.6861125 9.91069528,6.50419375 9.07962384,6.4461 C9.06039096,6.44471875 9.04115808,6.4435 9.0219252,6.44228125 C8.95538105,6.43805625 8.88859346,6.434725 8.82164355,6.432125 C8.79965153,6.43123125 8.7776595,6.430175 8.75558632,6.429525 C8.67070196,6.426925 8.5856553,6.42521875 8.50020288,6.42521875 C8.41475046,6.42521875 8.3297038,6.426925 8.24481944,6.429525 C8.22274626,6.430175 8.20075423,6.43123125 8.1787622,6.432125 C8.1118123,6.434725 8.0450247,6.43805625 7.97848056,6.44228125 C7.95924768,6.4435 7.9400148,6.44471875 7.92078192,6.4461 C7.08971048,6.50419375 6.29101845,6.6861125 5.54190992,6.97455 C5.46384228,7.00469375 5.39113063,7.034025 5.31890589,7.06433125 C5.29594004,7.07391875 5.2731365,7.0835875 5.25025181,7.09341875 C5.20139867,7.11438125 5.15287013,7.1359125 5.1045039,7.15776875 C5.07196219,7.17239375 5.03933933,7.18685625 5.00695993,7.20196875 C4.99868248,7.20586875 4.99048619,7.2100125 4.98220875,7.2139125 C4.75060267,7.322625 4.52345991,7.44149375 4.30199776,7.571575 Z M8.50004058,22.375 C4.70807934,22.375 1.62310905,19.1619688 1.62310905,15.21265 C1.62310905,12.5352188 3.04131083,10.1966 5.13615295,8.96769375 C5.16877581,8.94868125 5.20123637,8.92934375 5.23410268,8.9109 C5.2699716,8.89066875 5.30616512,8.870925 5.34243979,8.8512625 C5.40606249,8.816975 5.47000979,8.7833375 5.5346063,8.7511625 C5.55505645,8.740925 5.57575005,8.73109375 5.59636251,8.7211 C6.31301048,8.37343125 7.0848414,8.15495 7.87825859,8.079875 C7.88515646,8.079225 7.89213548,8.078575 7.8991145,8.077925 C7.99308781,8.0693125 8.08738573,8.06273125 8.18184596,8.05818125 C8.19280139,8.05769375 8.20391914,8.05736875 8.21487457,8.05688125 C8.30974055,8.0527375 8.40484999,8.05021875 8.50012173,8.05021875 C8.59539346,8.05021875 8.6905029,8.0527375 8.78536888,8.05688125 C8.79640547,8.05736875 8.80744206,8.05769375 8.8183975,8.05818125 C8.91293887,8.06273125 9.00715564,8.0693125 9.10112896,8.077925 C9.10810798,8.078575 9.11500585,8.079225 9.12198487,8.079875 C9.91540206,8.15495 10.687233,8.37343125 11.4038809,8.7211 C11.4244934,8.73109375 11.445187,8.740925 11.4656372,8.7511625 C11.5302337,8.7833375 11.5940998,8.816975 11.6578037,8.8512625 C11.6940783,8.87084375 11.7302719,8.8905875 11.7661408,8.9109 C11.7990071,8.92934375 11.8315488,8.94868125 11.8640905,8.96769375 C13.9589326,10.1966 15.3771344,12.5352188 15.3771344,15.21265 C15.3769721,19.1619688 12.2920018,22.375 8.50004058,22.375 Z" id="Shape"></path>
                    <path d="M11,13.3568448 C11,12.057318 9.87854189,11 8.49991527,11 C7.12145811,11 6,12.0572381 6,13.3568448 C6,14.0211024 6.29250271,14.6393619 6.79167232,15.0783406 L6.19217733,17.6121504 C6.17870458,17.6692487 6.17192584,17.7274651 6.17192584,17.7860009 C6.17192584,18.4781289 6.89115035,19 7.84491933,19 L9.15550434,19 C10.1091039,19 10.8281589,18.4781289 10.8281589,17.7860009 C10.8281589,17.727545 10.8213802,17.6692487 10.8078227,17.6121504 L10.208243,15.0783406 C10.7074126,14.6392821 11,14.0211024 11,13.3568448 Z M7.97803688,17.4027631 L8.49991527,15.1969295 L9.02196312,17.4027631 L7.97803688,17.4027631 L7.97803688,17.4027631 Z M8.86944143,14.0317235 C8.704718,14.11238 8.57770133,14.2386352 8.49991527,14.3874903 C8.4221292,14.2386352 8.29511253,14.11238 8.1303891,14.0317235 C7.86169672,13.9001976 7.69468547,13.6415381 7.69468547,13.3568448 C7.69468547,12.9379904 8.05590767,12.5971571 8.49991527,12.5971571 C8.94400759,12.5971571 9.30531453,12.9379904 9.30531453,13.3568448 C9.30531453,13.6414582 9.13830328,13.9000379 8.86944143,14.0317235 Z" id="Shape"></path>
                </g>
            </g>
        </g>
    </g>
</svg>