<?xml version="1.0" encoding="UTF-8"?>
<svg width="12px" height="12px" viewBox="0 0 12 12" version="1.1" xmlns="http://www.w3.org/2000/svg" xmlns:xlink="http://www.w3.org/1999/xlink">
    <!-- Generator: Sketch 47.1 (45422) - http://www.bohemiancoding.com/sketch -->
    <title>icons/logout</title>
    <desc>Created with Sketch.</desc>
    <defs></defs>
    <g id="CMS" stroke="none" stroke-width="1" fill="none" fill-rule="evenodd">
        <g id="Menu" transform="translate(-1114.000000, -38.000000)" fill-rule="nonzero">
            <g id="Group" transform="translate(1104.000000, 29.000000)">
                <g id="icons/logout" transform="translate(10.000000, 9.000000)">
                    <path d="M5.58831341,11.3123939 L2.32403718,11.3123939 C1.43691899,11.3123939 0.717131474,10.6196944 0.717131474,9.77164686 L0.717131474,2.22835314 C0.717131474,1.37775891 1.43957503,0.687606112 2.32403718,0.687606112 L5.64143426,0.687606112 C5.84063745,0.687606112 6,0.534804754 6,0.343803056 C6,0.152801358 5.84063745,0 5.64143426,0 L2.32403718,0 C1.04116866,0 0,1.0008489 0,2.22835314 L0,9.77164686 C0,11.0016978 1.0438247,12 2.32403718,12 L5.58831341,12 C5.7875166,12 5.94687915,11.8471986 5.94687915,11.6561969 C5.94687915,11.4651952 5.78486056,11.3123939 5.58831341,11.3123939 Z" id="Shape" fill="#497DC7"></path>
                    <path d="M11.151964,6.12111684 L9.02923709,3.85498679 C8.89811293,3.7150044 8.68781947,3.7150044 8.55669532,3.85498679 C8.42557117,3.99496919 8.42557117,4.21946925 8.55669532,4.35945164 L10.1103929,6.01811093 L3.33399549,6.01811093 C3.14844244,6.01811093 3,6.17658156 3,6.37466985 C3,6.57275814 3.14844244,6.73122878 3.33399549,6.73122878 L10.1103929,6.73122878 L8.55669532,8.38988806 C8.42557117,8.52987046 8.42557117,8.75437052 8.55669532,8.89435291 C8.62102038,8.96302352 8.7076118,9 8.79172918,9 C8.87584656,9 8.96243799,8.9656647 9.02676305,8.89435291 L11.1494899,6.62822287 C11.2830881,6.4855993 11.2830881,6.25845806 11.151964,6.12111684 Z" id="Shape" fill="#38465A"></path>
                </g>
            </g>
        </g>
    </g>
</svg>