<?xml version="1.0" encoding="UTF-8"?>
<svg width="178px" height="42px" viewBox="0 0 178 42" version="1.1" xmlns="http://www.w3.org/2000/svg" xmlns:xlink="http://www.w3.org/1999/xlink">
    <!-- Generator: Sketch 47.1 (45422) - http://www.bohemiancoding.com/sketch -->
    <title>dl-chem</title>
    <desc>Created with Sketch.</desc>
    <defs></defs>
    <g id="Page-1" stroke="none" stroke-width="1" fill="none" fill-rule="evenodd">
        <g id="DISTRIBUTORS" transform="translate(-449.000000, -497.000000)">
            <g id="Group-Copy-2" transform="translate(415.000000, 462.000000)">
                <g id="dl-chem" transform="translate(34.000000, 35.000000)">
                    <path d="M170.825242,42 L0,42 L0,6.89825869 C0,3.09452126 3.05033446,0 6.79975816,0 L177.623372,0 L177.625,35.0967864 C177.625,38.9051484 174.574666,42 170.825242,42" id="Fill-1" fill="#FFFFFE"></path>
                    <path d="M176.75,35.5159242 C176.75,38.6143054 174.265465,41.125 171.200824,41.125 L40.25,41.125 L40.25,1.75 L176.748369,1.75 L176.748369,35.1145692 L176.75,35.5159242" id="Fill-2" fill="#17170E"></path>
                    <path d="M24.5243459,23.8825663 C24.5243459,25.1707278 25.4691588,25.889671 26.4868482,25.889671 L33.0808688,25.889671 C34.3165423,25.889671 35.0433711,25.1463233 35.0433711,24.0313018 C35.0433711,22.8668118 34.3165423,22.1722731 33.0808688,22.1722731 L28.4493505,22.1722731 L28.4493505,10.229242 C28.4493505,8.81674959 27.6254607,8.09813621 26.4868482,8.09813621 C25.3482357,8.09813621 24.5243459,8.81674959 24.5243459,10.229242 L24.5243459,23.8825663 Z M11.0680164,11.8834709 L13.3342777,11.8834709 C16.2093468,11.8834709 17.6713884,13.902448 17.6713884,16.8929877 C17.6713884,19.9831242 16.2338539,22.1511665 13.163373,22.1511665 L11.0680164,22.1511665 L11.0680164,11.8834709 Z M7.12043947,23.8710237 C7.12043947,25.1667703 8.07073429,25.889671 9.09422793,25.889671 L13.8215174,25.889671 C18.1102589,25.889671 21.9114382,22.6999378 21.9114382,16.8929877 C21.9114382,12.3323157 18.9873549,8.14562604 13.8215174,8.14562604 L9.09422793,8.14562604 C8.07073429,8.14562604 7.12043947,8.86819689 7.12043947,10.1642733 L7.12043947,23.8710237 Z M6.8773033,1.75 L39.375,1.75 L39.375,41.125 L0.875,41.125 L0.875,7.35907583 C0.875,4.26135421 3.33054634,1.75 6.3594297,1.75 L6.8773033,1.75 L6.8773033,1.75 Z" id="Fill-3" fill="#84BF41"></path>
                    <path d="M53.2348309,7.875 C55.6251858,7.875 58.478977,8.56624012 58.478977,10.6656473 C58.478977,11.6289048 57.7960184,12.5677926 56.7715806,12.5677926 C55.8447082,12.5677926 54.8690531,11.7277004 53.3323964,11.7277004 C50.1374512,11.7277004 48.8690996,14.3454554 48.8690996,17.0623353 C48.8690996,19.853312 50.2834743,22.2494355 52.9909171,22.2494355 C55.4544462,22.2494355 55.8447082,21.4337128 56.8691461,21.4337128 C58.4301942,21.4337128 58.625,22.7677832 58.625,23.286131 C58.625,25.4846632 55.3324893,26.25 53.1616568,26.25 C47.6983135,26.25 44.625,22.1005834 44.625,17.0623353 C44.625,11.7277004 48.0154014,7.875 53.2348309,7.875" id="Fill-4" fill="#84BF41"></path>
                    <path d="M63.3496049,23.2964782 C63.3496049,24.6743167 62.5416631,25.375 61.4248024,25.375 C60.3079418,25.375 59.5,24.6743167 59.5,23.2964782 L59.5,9.95352183 C59.5,8.57568328 60.3079418,7.875 61.4248024,7.875 C62.5416631,7.875 63.3496049,8.57568328 63.3496049,9.95352183 L63.3496049,14.5946622 L70.525712,14.5946622 L70.525712,9.95352183 C70.525712,8.57568328 71.3336537,7.875 72.4505144,7.875 C73.5673751,7.875 74.375,8.57568328 74.375,9.95352183 L74.375,23.2964782 C74.375,24.6743167 73.5673751,25.375 72.4505144,25.375 C71.3336537,25.375 70.525712,24.6743167 70.525712,23.2964782 L70.525712,18.2202309 L63.3496049,18.2202309 L63.3496049,23.2964782" id="Fill-5" fill="#84BF41"></path>
                    <path d="M77,9.86590807 C77,8.58812197 77.9844066,7.875 79.0445367,7.875 L85.3040162,7.875 C86.591317,7.875 87.3485528,8.61237336 87.3485528,9.7184334 C87.3485528,10.8736517 86.591317,11.5618668 85.3040162,11.5618668 L81.0887368,11.5618668 L81.0887368,14.7325722 L84.9506394,14.7325722 C86.2379403,14.7325722 86.9951761,15.4450388 86.9951761,16.5760056 C86.9951761,17.7063171 86.2379403,18.4191113 84.9506394,18.4191113 L81.0887368,18.4191113 L81.0887368,21.6881332 L85.4554633,21.6881332 C86.7427642,21.6881332 87.5,22.3760206 87.5,23.5315666 C87.5,24.6376266 86.7427642,25.375 85.4554633,25.375 L79.0445367,25.375 C77.9844066,25.375 77,24.661878 77,23.3837642 L77,9.86590807" id="Fill-6" fill="#84BF41"></path>
                    <path d="M114.625,23.2964782 C114.625,24.6743167 113.70715,25.375 112.4375,25.375 C111.16821,25.375 110.25,24.6743167 110.25,23.2964782 L110.25,9.95352183 C110.25,8.57568328 111.16821,7.875 112.4375,7.875 C113.70715,7.875 114.625,8.57568328 114.625,9.95352183 L114.625,23.2964782" id="Fill-7" fill="#84BF41"></path>
                    <path d="M124.109831,7.875 C126.500186,7.875 129.353327,8.56624012 129.353327,10.6656473 C129.353327,11.6289048 128.670693,12.5677926 127.646581,12.5677926 C126.719383,12.5677926 125.743728,11.7277004 124.207071,11.7277004 C121.012126,11.7277004 119.743449,14.3454554 119.743449,17.0623353 C119.743449,19.853312 121.158799,22.2494355 123.865917,22.2494355 C126.329121,22.2494355 126.719383,21.4337128 127.743821,21.4337128 C129.305194,21.4337128 129.5,22.7677832 129.5,23.286131 C129.5,25.4846632 126.207164,26.25 124.036982,26.25 C118.572988,26.25 115.5,22.1005834 115.5,17.0623353 C115.5,11.7277004 118.889751,7.875 124.109831,7.875" id="Fill-8" fill="#84BF41"></path>
                    <path d="M138.349355,12.3813764 L138.299844,12.3813764 L136.131635,18.9146207 L140.368365,18.9146207 L138.349355,12.3813764 Z M134.860949,11.5548736 C135.583353,9.57707504 136.206401,7.875 138.224746,7.875 C140.292934,7.875 140.915983,9.57707504 141.639051,11.5548736 L145.526541,22.0944534 C146.049902,23.5214726 146.125,23.9968118 146.125,24.5979958 C146.125,25.5994128 145.327498,26.25 144.181421,26.25 C142.859894,26.25 142.436886,25.3991294 142.063056,24.2725353 L141.564618,22.6699343 L134.935382,22.6699343 L134.436944,24.2725353 C134.063114,25.3991294 133.639442,26.25 132.318579,26.25 C131.172502,26.25 130.375,25.5994128 130.375,24.5979958 C130.375,23.9968118 130.449434,23.5214726 130.972794,22.0944534 L134.860949,11.5548736 L134.860949,11.5548736 Z" id="Fill-9" fill="#84BF41"></path>
                    <path d="M147,9.97085314 C147,8.58152578 147.855834,7.875 149.039363,7.875 C150.222892,7.875 151.078726,8.58152578 151.078726,9.97085314 L151.078726,21.7188754 L155.460637,21.7188754 C156.744556,21.7188754 157.5,22.401027 157.5,23.5469377 C157.5,24.6437751 156.744556,25.375 155.460637,25.375 L149.039363,25.375 C147.981741,25.375 147,24.6678242 147,23.4003677 L147,9.97085314" id="Fill-10" fill="#84BF41"></path>
                    <path d="M160.197285,21.2361216 C161.155575,21.2361216 162.402502,22.2494355 164.391961,22.2494355 C165.902274,22.2494355 166.454298,21.4587411 166.454298,20.5942793 C166.454298,19.2602089 164.967638,18.9888502 162.762101,18.2482123 C160.748669,17.5810124 158.662998,16.6918517 158.662998,13.5060218 C158.662998,9.677691 161.563439,7.875 164.799825,7.875 C167.916345,7.875 169.642417,8.98645088 169.642417,10.5174539 C169.642417,11.6042059 168.946874,12.3945709 167.916345,12.3945709 C166.669417,12.3945709 166.261872,11.7277004 164.608039,11.7277004 C163.552898,11.7277004 162.833701,12.295446 162.833701,13.1599078 C162.833701,14.1728924 163.79263,14.2963869 166.477951,15.2099172 C168.587276,15.9265149 170.625,17.0379658 170.625,20.3716598 C170.625,24.4226101 167.724559,26.25 164.104282,26.25 C161.827465,26.25 158.375,25.3361404 158.375,23.3608863 C158.375,22.273805 159.022597,21.2361216 160.197285,21.2361216" id="Fill-11" fill="#84BF41"></path>
                    <path d="M89.6905721,10.3402963 C90.0517153,8.28588272 91.2793457,7.875 92.2666413,7.875 C94.2162377,7.875 94.6494813,9.01112127 95.6367769,12.1051293 L97.5383063,18.026731 L97.5866937,18.026731 L99.4885435,12.1051293 C100.475198,9.01112127 100.908762,7.875 102.858679,7.875 C103.845654,7.875 105.073285,8.28588272 105.434107,10.3402963 L106.975135,19.186984 C107.28789,20.9759487 107.625,22.9335137 107.625,23.5136402 C107.625,24.3839908 106.950781,25.375 105.795571,25.375 C104.037922,25.375 103.724846,24.1182201 103.532578,22.7890451 L102.377369,15.1502303 L102.328661,15.1502303 L99.7048449,23.6104888 C99.3199887,24.8672687 98.7422237,25.375 97.5623398,25.375 C96.3830967,25.375 95.8053318,24.8672687 95.4198346,23.6104888 L92.7963393,15.1502303 L92.7476315,15.1502303 L91.5924219,22.7890451 C91.3998336,24.1182201 91.0867574,25.375 89.3300698,25.375 C88.1742194,25.375 87.5,24.3839908 87.5,23.5136402 C87.5,22.9335137 87.8374301,20.9759487 88.1498655,19.186984 L89.6905721,10.3402963" id="Fill-12" fill="#84BF41"></path>
                    <path d="M9.52322744,32.375 C10.0693836,32.375 11.1616959,32.4678944 11.2558006,33.428455 L10.4513792,33.428455 C10.4269817,33.1732399 10.1784754,32.8942308 9.55808106,32.8942308 C9.06176558,32.8942308 8.73414161,33.0382986 8.73414161,33.3495763 C8.73414161,34.1298892 11.375,33.3818449 11.375,34.797751 C11.375,35.6520535 10.4269817,35.875 9.67240092,35.875 C8.39641008,35.875 7.88510755,35.4062907 7.875,34.7100717 L8.67942143,34.7100717 C8.69928799,35.1461864 9.08651165,35.3547914 9.69714698,35.3547914 C10.1488498,35.3547914 10.5709271,35.2299544 10.5709271,34.8678292 C10.5709271,34.0461213 7.95934575,34.7609192 7.95934575,33.4004237 C7.95934575,32.6624837 8.65955487,32.375 9.52322744,32.375" id="Fill-13" fill="#17170E"></path>
                    <path d="M11.375,35.875 L12.25,35.875 L12.25,33.3197292 L11.375,33.3197292 L11.375,35.875 Z M11.375,32.9152321 L12.25,32.9152321 L12.25,32.375 L11.375,32.375 L11.375,32.9152321 Z" id="Fill-14" fill="#17170E"></path>
                    <path d="M12.25,33.3174206 L12.881451,33.3174206 L12.881451,33.7036493 L12.8904396,33.7036493 C13.096215,33.4285461 13.4162743,33.25 13.8461233,33.25 C14.3674636,33.25 14.875,33.4485351 14.875,34.1379872 L14.875,35.875 L14.24387,35.875 L14.24387,34.350413 C14.24387,34.074971 14.1568729,33.7612448 13.6358536,33.7612448 C13.3064847,33.7612448 12.881451,33.954698 12.881451,34.4998225 L12.881451,35.875 L12.25,35.875 L12.25,33.3174206" id="Fill-15" fill="#17170E"></path>
                    <path d="M17.7548256,34.1989315 C17.7124534,33.9451287 17.4677023,33.7378834 17.1343549,33.7378834 C16.5938876,33.7378834 16.3577294,34.1391181 16.3577294,34.5626617 C16.3577294,34.9865285 16.5687013,35.3867933 17.0709448,35.3867933 C17.5225195,35.3867933 17.644895,35.1934505 17.7672706,34.8481494 L18.375,34.8481494 C18.2398832,35.8610974 17.2905097,35.875 17.1343549,35.875 C16.1340163,35.875 15.75,35.2351583 15.75,34.5626617 C15.75,33.775388 16.2688368,33.25 17.1343549,33.25 C17.4718507,33.25 18.2398832,33.3747999 18.362555,34.1989315 L17.7548256,34.1989315" id="Fill-16" fill="#17170E"></path>
                    <path d="M20.4130737,34.3188816 C20.3438215,33.8303516 19.9606454,33.683243 19.6833506,33.683243 C19.4223673,33.683243 19.0557887,33.8212988 18.9619263,34.3188816 L20.4130737,34.3188816 Z M18.9619263,34.7236729 C18.9742314,34.9959047 19.1370598,35.4145985 19.6956557,35.4145985 C20.0665268,35.4145985 20.2296413,35.2674898 20.3395291,35.0647709 L20.9510656,35.0647709 C20.8285866,35.3363561 20.5352665,35.875 19.7119672,35.875 C18.7375722,35.875 18.375,35.2351583 18.375,34.5862637 C18.375,33.7702149 18.9089856,33.25 19.6753379,33.25 C20.6331353,33.25 21,33.9179702 21,34.6315279 L21,34.7236729 L18.9619263,34.7236729 L18.9619263,34.7236729 Z" id="Fill-17" fill="#17170E"></path>
                    <path d="M24.6611476,33.4890806 L23.625,33.4890806 L23.625,32.9920722 L23.8331344,32.9920722 C24.1703958,32.9920722 24.7251889,32.9020243 24.8296042,32.375 L25.375,32.375 L25.375,35.875 L24.6611476,35.875 L24.6611476,33.4890806" id="Fill-18" fill="#17170E"></path>
                    <path d="M27.5381073,32.8871703 C27.0382703,32.8871703 26.8596756,33.1916214 26.8596756,33.5211889 C26.8596756,33.8544899 27.0382703,34.158941 27.5381073,34.158941 C28.0422237,34.158941 28.2208184,33.8544899 28.2208184,33.5211889 C28.2208184,33.1916214 28.0422237,32.8871703 27.5381073,32.8871703 Z M26.9204434,34.9562161 C26.9692289,35.1934639 27.1318471,35.3624903 27.4813336,35.3624903 C27.9891588,35.3624903 28.2656097,34.9277056 28.2901451,34.2947052 C28.0459325,34.5842223 27.7980111,34.6711113 27.4122921,34.6711113 C26.5589746,34.6711113 26.25,34.125 26.25,33.5595423 C26.25,32.9794899 26.6320101,32.375 27.5500897,32.375 C28.5660254,32.375 28.875,33.1291699 28.875,34.1304306 C28.875,34.7586792 28.6638816,35.875 27.5500897,35.875 C26.7823606,35.875 26.3883681,35.5321955 26.3230355,34.9562161 L26.9204434,34.9562161 L26.9204434,34.9562161 Z" id="Fill-19" fill="#17170E"></path>
                    <path d="M30.3330805,34.7250776 C30.3615235,35.2080586 30.6692762,35.3624903 31.0461453,35.3624903 C31.4349605,35.3624903 31.7429976,35.1690264 31.7429976,34.8017843 C31.7429976,34.5842223 31.6497047,34.2702676 31.0868187,34.2702676 L30.7463566,34.2702676 L30.7463566,33.7869472 L31.1272077,33.7869472 C31.4511729,33.7869472 31.6457227,33.6562742 31.6457227,33.3759213 C31.6457227,33.1291699 31.4835979,32.8871703 31.0216844,32.8871703 C30.5884982,32.8871703 30.426089,33.1824573 30.4101609,33.4672227 L29.826796,33.4672227 C29.8873795,32.6458495 30.4627804,32.375 31.0905163,32.375 C31.9779364,32.375 32.2532642,32.8586598 32.2532642,33.3613266 C32.2532642,33.5839798 32.1480252,33.863654 31.8158116,33.9797324 L31.8158116,33.9899147 C32.1602557,34.0866466 32.375,34.3907583 32.375,34.7586792 C32.375,35.130673 32.2290877,35.875 31.0381813,35.875 C30.4303554,35.875 29.7536976,35.647595 29.75,34.7250776 L30.3330805,34.7250776" id="Fill-20" fill="#17170E"></path>
                    <path d="M33.7118927,35.3624903 C34.2117297,35.3624903 34.3906097,35.0583786 34.3906097,34.7294899 C34.3906097,34.3955101 34.2117297,34.091059 33.7118927,34.091059 C33.2080616,34.091059 33.0291816,34.3955101 33.0291816,34.7294899 C33.0291816,35.0583786 33.2080616,35.3624903 33.7118927,35.3624903 Z M34.3295566,33.2937839 C34.2807711,33.0568755 34.1181529,32.8871703 33.7689517,32.8871703 C33.2608412,32.8871703 32.9843903,33.3229732 32.9601402,33.9559736 C33.2040675,33.6661171 33.4517036,33.5788887 33.8379932,33.5788887 C34.6913107,33.5788887 35,34.125 35,34.6904577 C35,35.2711889 34.6179899,35.875 33.699625,35.875 C32.6836893,35.875 32.375,35.1215089 32.375,34.1202483 C32.375,33.4919996 32.5861184,32.375 33.699625,32.375 C34.4676394,32.375 34.8619172,32.7181439 34.9269645,33.2937839 L34.3295566,33.2937839 L34.3295566,33.2937839 Z" id="Fill-21" fill="#17170E"></path>
                    <polyline id="Fill-22" fill="#FFFFFE" points="52.401208 28.875 53.375 28.875 53.375 35.875 52.6886282 35.875 52.6886282 29.8263633 52.6701958 29.8263633 49.7481949 35.875 49.1174327 35.875 46.2051166 29.8161265 46.1863718 29.8161265 46.1863718 35.875 45.5 35.875 45.5 28.875 46.5019092 28.875 49.4514024 34.9635933 52.401208 28.875"></polyline>
                    <path d="M58.8360447,33.0596851 C58.4928094,33.2599323 57.973053,33.2980593 56.4337474,33.430703 C55.5395843,33.5072776 55.0198279,33.7543025 55.0198279,34.3444709 C55.0198279,35.1147016 55.7476269,35.3431435 56.5790971,35.3431435 C57.6193104,35.3431435 58.8360447,34.8295496 58.8360447,33.8113328 L58.8360447,33.0596851 Z M54.489214,32.2987459 C54.6033923,31.2619462 55.2170131,30.625 57.0683826,30.625 C58.8773731,30.625 59.5431796,31.1385939 59.5431796,32.089848 L59.5431796,34.6773618 C59.5431796,35.085866 59.6678651,35.2294031 59.9694219,35.2294031 C60.1046146,35.2294031 60.2398073,35.2191505 60.375,35.209859 L60.375,35.6856463 C60.2187929,35.7141615 59.9799291,35.7612596 59.7302079,35.7612596 C58.9505733,35.7612596 58.9085444,35.2761809 58.8983875,34.8862596 L58.8773731,34.8862596 C58.6385093,35.209859 58.1184026,35.875 56.3507405,35.875 C55.4250558,35.875 54.25,35.5046228 54.25,34.3912486 C54.25,33.0503936 55.7577839,32.8982058 56.9433469,32.8414958 C58.6280021,32.7556298 58.8360447,32.6697638 58.8360447,32.1850055 C58.8360447,31.4714848 58.3159381,31.2142073 57.0473682,31.2142073 C55.8306339,31.2142073 55.2485347,31.5096119 55.1966992,32.2987459 L54.489214,32.2987459 L54.489214,32.2987459 Z" id="Fill-23" fill="#FFFFFE"></path>
                    <path d="M65.7471116,32.5934201 C65.7471116,31.5844646 65.1062826,31.231759 64.1498368,31.231759 C62.6745594,31.231759 62.0028884,31.9569664 62.0028884,33.113075 L62.0028884,35.875 L61.25,35.875 L61.25,30.7813914 L62.0028884,30.7813914 L62.0028884,31.7807787 L62.023107,31.7807787 C62.2468832,31.2416572 63.0408943,30.625 64.2108355,30.625 C65.9708877,30.625 66.5,31.5062689 66.5,32.7211067 L66.5,35.875 L65.7471116,35.875 L65.7471116,32.5934201" id="Fill-24" fill="#FFFFFE"></path>
                    <path d="M71.8721116,34.7195513 L71.8515503,34.7195513 C71.6281168,35.2583428 70.8344484,35.875 69.6641645,35.875 C67.9041123,35.875 67.375,34.9940611 67.375,33.7795532 L67.375,30.625 L68.1278884,30.625 L68.1278884,33.9065799 C68.1278884,34.9155354 68.7690601,35.268241 69.7255059,35.268241 C71.2007833,35.268241 71.8721116,34.5436934 71.8721116,33.3875848 L71.8721116,30.625 L72.625,30.625 L72.625,35.7186086 L71.8721116,35.7186086 L71.8721116,34.7195513" id="Fill-25" fill="#FFFFFE"></path>
                    <path d="M73.7814408,31.3635614 L72.625,31.3635614 L72.625,30.8192807 L73.7814408,30.8192807 L73.7814408,30.1482632 C73.7814408,29.1952807 74.2829673,28.875 75.2756795,28.875 C75.5624631,28.875 75.8895755,28.8939942 76.125,28.9133158 L76.125,29.5165439 C75.8895755,29.4972222 75.6541511,29.4775731 75.4190713,29.4775731 C74.7434755,29.4775731 74.5387286,29.6422982 74.5387286,30.2258772 L74.5387286,30.8192807 L76.0429634,30.8192807 L76.0429634,31.3635614 L74.5387286,31.3635614 L74.5387286,35.875 L73.7814408,35.875 L73.7814408,31.3635614" id="Fill-26" fill="#FFFFFE"></path>
                    <path d="M80.711307,33.0596851 C80.368052,33.2599323 79.8479156,33.2980593 78.3088723,33.430703 C77.4143078,33.5072776 76.8948719,33.7543025 76.8948719,34.3444709 C76.8948719,35.1147016 77.6223623,35.3431435 78.4542303,35.3431435 C79.4941528,35.3431435 80.711307,34.8295496 80.711307,33.8113328 L80.711307,33.0596851 Z M76.3642277,32.2987459 C76.4784125,31.2619462 77.0920684,30.625 78.9431935,30.625 C80.7526377,30.625 81.418132,31.1385939 81.418132,32.089848 L81.418132,34.6773618 C81.418132,35.085866 81.5431749,35.2294031 81.844749,35.2294031 C81.9799494,35.2294031 82.1151498,35.2191505 82.25,35.209859 L82.25,35.6856463 C82.0941342,35.7141615 81.8552568,35.7612596 81.6055212,35.7612596 C80.8254918,35.7612596 80.7838108,35.2761809 80.7736533,34.8862596 L80.7526377,34.8862596 C80.51341,35.209859 79.9936238,35.875 78.2258606,35.875 C77.3001229,35.875 76.125,35.5046228 76.125,34.3912486 C76.125,33.0503936 77.6328701,32.8982058 78.8181506,32.8414958 C80.5032524,32.7556298 80.711307,32.6697638 80.711307,32.1850055 C80.711307,31.4714848 80.1911706,31.2142073 78.9225282,31.2142073 C77.7057243,31.2142073 77.1232416,31.5096119 77.0710528,32.2987459 L76.3642277,32.2987459 L76.3642277,32.2987459 Z" id="Fill-27" fill="#FFFFFE"></path>
                    <path d="M87.5,33.9539088 C87.3680105,34.6011077 86.801569,35.875 85.0166899,35.875 C83.2413522,35.875 82.25,34.800714 82.25,33.25 C82.25,31.7662486 83.1564336,30.625 85.0166899,30.625 C86.6975677,30.625 87.3489277,31.680703 87.4627885,32.3939033 L86.7637215,32.3939033 C86.5464954,31.5470981 85.885594,31.2142073 85.0166899,31.2142073 C83.6099685,31.2142073 82.948749,32.108431 82.948749,33.25 C82.948749,34.4771146 83.6853456,35.2857927 85.0166899,35.2857927 C86.0458896,35.2857927 86.6221906,34.7251007 86.801569,33.9539088 L87.5,33.9539088" id="Fill-28" fill="#FFFFFE"></path>
                    <path d="M89.5591973,28.875 L90.3346612,28.875 L90.3346612,30.5339438 L91.875,30.5339438 L91.875,31.1002129 L90.3346612,31.1002129 L90.3346612,34.5806218 C90.3346612,35.0351363 90.4811416,35.2480835 91.1101251,35.2480835 C91.4874445,35.2480835 91.7281666,35.2174191 91.875,35.1874361 L91.875,35.8143526 C91.5816862,35.8548978 91.2781363,35.875 91.0264724,35.875 C89.8214502,35.875 89.5591973,35.4198041 89.5591973,34.5700596 L89.5591973,31.1002129 L88.375,31.1002129 L88.375,30.5339438 L89.5591973,30.5339438 L89.5591973,28.875" id="Fill-29" fill="#FFFFFE"></path>
                    <path d="M97.2467198,34.7195513 L97.2264998,34.7195513 C97.0030518,35.2583428 96.2096743,35.875 95.0386285,35.875 C93.2784614,35.875 92.75,34.9940611 92.75,33.7795532 L92.75,30.625 L93.5025948,30.625 L93.5025948,33.9065799 C93.5025948,34.9155354 94.1438083,35.268241 95.1006593,35.268241 C96.5753476,35.268241 97.2467198,34.5436934 97.2467198,33.3875848 L97.2467198,30.625 L98,30.625 L98,35.7186086 L97.2467198,35.7186086 L97.2467198,34.7195513" id="Fill-30" fill="#FFFFFE"></path>
                    <path d="M98.875,30.7813914 L99.6867281,30.7813914 L99.6867281,31.9470683 L99.7085269,31.9470683 C100.005212,31.3396493 100.542793,30.625 101.891732,30.625 C102.121912,30.625 102.253813,30.6441365 102.375,30.6642628 L102.375,31.4086067 C102.121912,31.369014 101.880648,31.3498775 101.628299,31.3498775 C100.751174,31.3498775 99.6867281,31.8299397 99.6867281,33.2793646 L99.6867281,35.875 L98.875,35.875 L98.875,30.7813914" id="Fill-31" fill="#FFFFFE"></path>
                    <path d="M106.950829,32.8889143 C106.759261,31.6710912 105.902425,31.2142073 105.00046,31.2142073 C104.134108,31.2142073 103.204206,31.680703 103.049478,32.8889143 L106.950829,32.8889143 Z M107.506805,34.1442237 C107.233269,35.0195441 106.522564,35.875 104.954104,35.875 C103.012945,35.875 102.375,34.4582113 102.375,33.25 C102.375,31.8706975 103.1864,30.625 104.954104,30.625 C106.175962,30.625 107.625,31.1760802 107.625,33.4214116 L103.049478,33.4214116 C103.049478,34.4489198 103.751279,35.2857927 104.954104,35.2857927 C106.08509,35.2857927 106.595323,34.8958715 106.83202,34.1442237 L107.506805,34.1442237 L107.506805,34.1442237 Z" id="Fill-32" fill="#FFFFFE"></path>
                    <path d="M108.5,30.7813914 L109.311899,30.7813914 L109.311899,31.9470683 L109.334442,31.9470683 C109.630081,31.3396493 110.167775,30.625 111.517738,30.625 C111.747967,30.625 111.879897,30.6441365 112,30.6642628 L112,31.4086067 C111.747967,31.369014 111.506652,31.3498775 111.25388,31.3498775 C110.376571,31.3498775 109.311899,31.8299397 109.311899,33.2793646 L109.311899,35.875 L108.5,35.875 L108.5,30.7813914" id="Fill-33" fill="#FFFFFE"></path>
                    <path d="M118.561976,35.2857927 C120.016213,35.2857927 120.856796,34.4396283 120.856796,33.25 C120.856796,32.0610124 120.016213,31.2142073 118.561976,31.2142073 C117.108438,31.2142073 116.268204,32.0610124 116.268204,33.25 C116.268204,34.4396283 117.108438,35.2857927 118.561976,35.2857927 Z M118.561976,30.625 C120.638958,30.625 121.625,31.8706975 121.625,33.25 C121.625,34.6293025 120.638958,35.875 118.561976,35.875 C116.485692,35.875 115.5,34.6293025 115.5,33.25 C115.5,31.8706975 116.485692,30.625 118.561976,30.625 L118.561976,30.625 Z" id="Fill-34" fill="#FFFFFE"></path>
                    <path d="M122.781672,31.3635614 L121.625,31.3635614 L121.625,30.8192807 L122.781672,30.8192807 L122.781672,30.1482632 C122.781672,29.1952807 123.282804,28.875 124.275419,28.875 C124.562174,28.875 124.889599,28.8939942 125.125,28.9133158 L125.125,29.5165439 C124.889599,29.4972222 124.654542,29.4775731 124.419141,29.4775731 C123.743267,29.4775731 123.53854,29.6422982 123.53854,30.2258772 L123.53854,30.8192807 L125.042971,30.8192807 L125.042971,31.3635614 L123.53854,31.3635614 L123.53854,35.875 L122.781672,35.875 L122.781672,31.3635614" id="Fill-35" fill="#FFFFFE"></path>
                    <path d="M132.939301,30.9472112 C132.840788,29.8089411 131.86595,29.5099919 130.733226,29.5099919 C129.601166,29.5099919 128.744077,29.9299668 128.744077,30.68567 C128.744077,31.5539114 129.601166,31.7588692 131.31468,32.0295267 C132.594342,32.2354275 133.875,32.5152012 133.875,33.7943012 C133.875,35.4273621 132.309088,35.875 130.940533,35.875 C129.157695,35.875 127.857799,35.2965915 127.75,33.5044683 L128.478393,33.5044683 C128.606425,34.9042797 129.590883,35.2400081 130.940533,35.2400081 C131.994314,35.2400081 133.087235,34.9693506 133.087235,33.9153269 C133.087235,32.8977681 131.80724,32.7761137 130.526914,32.5802721 C128.85254,32.3287902 127.956643,31.8805236 127.956643,30.8073244 C127.956643,29.3515583 129.374621,28.875 130.733226,28.875 C132.171437,28.875 133.618935,29.3606745 133.668357,30.9472112 L132.939301,30.9472112" id="Fill-36" fill="#FFFFFE"></path>
                    <path d="M139.325522,32.8889143 C139.133954,31.6710912 138.277118,31.2142073 137.375153,31.2142073 C136.509415,31.2142073 135.578899,31.680703 135.424478,32.8889143 L139.325522,32.8889143 Z M139.881805,34.1442237 C139.608269,35.0195441 138.89695,35.875 137.329104,35.875 C135.387638,35.875 134.75,34.4582113 134.75,33.25 C134.75,31.8706975 135.561093,30.625 137.329104,30.625 C138.550962,30.625 140,31.1760802 140,33.4214116 L135.424478,33.4214116 C135.424478,34.4489198 136.126279,35.2857927 137.329104,35.2857927 C138.459783,35.2857927 138.970016,34.8958715 139.207327,34.1442237 L139.881805,34.1442237 L139.881805,34.1442237 Z" id="Fill-37" fill="#FFFFFE"></path>
                    <path d="M145.460694,33.0596851 C145.117809,33.2599323 144.597703,33.2980593 143.058747,33.430703 C142.164584,33.5072776 141.644828,33.7543025 141.644828,34.3444709 C141.644828,35.1147016 142.372627,35.3431435 143.204447,35.3431435 C144.24396,35.3431435 145.460694,34.8295496 145.460694,33.8113328 L145.460694,33.0596851 Z M141.114214,32.2987459 C141.228743,31.2619462 141.841663,30.625 143.693032,30.625 C145.502373,30.625 146.16818,31.1385939 146.16818,32.089848 L146.16818,34.6773618 C146.16818,35.085866 146.292865,35.2294031 146.594772,35.2294031 C146.729615,35.2294031 146.864807,35.2191505 147,35.209859 L147,35.6856463 C146.843443,35.7141615 146.604929,35.7612596 146.354858,35.7612596 C145.575223,35.7612596 145.533544,35.2761809 145.523387,34.8862596 L145.502373,34.8862596 C145.26386,35.209859 144.743403,35.875 142.975741,35.875 C142.050406,35.875 140.875,35.5046228 140.875,34.3912486 C140.875,33.0503936 142.382784,32.8982058 143.568347,32.8414958 C145.253002,32.7556298 145.460694,32.6697638 145.460694,32.1850055 C145.460694,31.4714848 144.941288,31.2142073 143.672368,31.2142073 C142.455634,31.2142073 141.873535,31.5096119 141.821699,32.2987459 L141.114214,32.2987459 L141.114214,32.2987459 Z" id="Fill-38" fill="#FFFFFE"></path>
                    <polygon id="Fill-39" fill="#FFFFFE" points="147.875 35.875 148.75 35.875 148.75 28.875 147.875 28.875"></polygon>
                    <path d="M154.210957,33.0596851 C153.868052,33.2599323 153.347916,33.2980593 151.808172,33.430703 C150.914308,33.5072776 150.394522,33.7543025 150.394522,34.3444709 C150.394522,35.1147016 151.122012,35.3431435 151.954581,35.3431435 C152.994503,35.3431435 154.210957,34.8295496 154.210957,33.8113328 L154.210957,33.0596851 Z M149.863877,32.2987459 C149.978413,31.2619462 150.592068,30.625 152.442493,30.625 C154.252287,30.625 154.918132,31.1385939 154.918132,32.089848 L154.918132,34.6773618 C154.918132,35.085866 155.042825,35.2294031 155.344749,35.2294031 C155.479599,35.2294031 155.6148,35.2191505 155.75,35.209859 L155.75,35.6856463 C155.593784,35.7141615 155.354907,35.7612596 155.104821,35.7612596 C154.325142,35.7612596 154.283811,35.2761809 154.273303,34.8862596 L154.252287,34.8862596 C154.01341,35.209859 153.493274,35.875 151.72551,35.875 C150.799773,35.875 149.625,35.5046228 149.625,34.3912486 C149.625,33.0503936 151.13252,32.8982058 152.318501,32.8414958 C154.002552,32.7556298 154.210957,32.6697638 154.210957,32.1850055 C154.210957,31.4714848 153.691171,31.2142073 152.422178,31.2142073 C151.205024,31.2142073 150.623242,31.5096119 150.571403,32.2987459 L149.863877,32.2987459 L149.863877,32.2987459 Z" id="Fill-40" fill="#FFFFFE"></path>
                    <path d="M160.247112,32.5934201 C160.247112,31.5844646 159.60594,31.231759 158.649494,31.231759 C157.174559,31.231759 156.502546,31.9569664 156.502546,33.113075 L156.502546,35.875 L155.75,35.875 L155.75,30.7813914 L156.502546,30.7813914 L156.502546,31.7807787 L156.522764,31.7807787 C156.746883,31.2416572 157.539866,30.625 158.71015,30.625 C160.470545,30.625 161,31.5062689 161,32.7211067 L161,35.875 L160.247112,35.875 L160.247112,32.5934201" id="Fill-41" fill="#FFFFFE"></path>
                    <path d="M162.183725,28.875 L162.959111,28.875 L162.959111,30.5339438 L164.5,30.5339438 L164.5,31.1002129 L162.959111,31.1002129 L162.959111,34.5806218 C162.959111,35.0351363 163.105929,35.2480835 163.734496,35.2480835 C164.111778,35.2480835 164.352476,35.2174191 164.5,35.1874361 L164.5,35.8143526 C164.206363,35.8548978 163.902491,35.875 163.650852,35.875 C162.445598,35.875 162.183725,35.4198041 162.183725,34.5700596 L162.183725,31.1002129 L161,31.1002129 L161,30.5339438 L162.183725,30.5339438 L162.183725,28.875" id="Fill-42" fill="#FFFFFE"></path>
                    <path d="M169.708972,32.2417155 C169.512729,31.4426492 168.977744,31.2142073 167.86582,31.2142073 C167.063515,31.2142073 166.321886,31.3763274 166.321886,32.0610124 C166.321886,32.5749268 166.682126,32.6793757 168.308232,32.8789821 C169.945433,33.0792292 170.625,33.3451575 170.625,34.3063438 C170.625,35.2857927 169.759939,35.875 168.082519,35.875 C166.383949,35.875 165.375,35.3620469 165.375,34.1730593 L166.074676,34.1730593 C166.208856,35.0003204 166.71333,35.2857927 168.082519,35.2857927 C169.142782,35.2857927 169.863261,35.085866 169.863261,34.3444709 C169.863261,33.8494599 169.481872,33.6303094 167.814853,33.478442 C166.146794,33.3262541 165.560147,32.9651684 165.560147,32.089848 C165.560147,31.2337514 166.312178,30.625 167.86582,30.625 C169.60565,30.625 170.316421,31.2049158 170.408648,32.2417155 L169.708972,32.2417155" id="Fill-43" fill="#FFFFFE"></path>
                </g>
            </g>
        </g>
    </g>
</svg>