<?xml version="1.0" encoding="UTF-8"?>
<svg width="268px" height="40px" viewBox="0 0 268 40" version="1.1" xmlns="http://www.w3.org/2000/svg" xmlns:xlink="http://www.w3.org/1999/xlink">
    <!-- Generator: Sketch 47.1 (45422) - http://www.bohemiancoding.com/sketch -->
    <title>facom</title>
    <desc>Created with Sketch.</desc>
    <defs></defs>
    <g id="Page-1" stroke="none" stroke-width="1" fill="none" fill-rule="evenodd">
        <g id="DISTRIBUTORS" transform="translate(-897.000000, -224.000000)">
            <g id="Group-Copy" transform="translate(861.000000, 189.000000)">
                <g id="facom" transform="translate(36.000000, 35.000000)">
                    <polygon id="Fill-2" fill="#D8232A" points="0.160148148 39.5482963 66.9795185 39.5482963 66.9795185 0.100222222 0.160148148 0.100222222"></polygon>
                    <polyline id="Fill-3" fill="#FFFFFE" points="7.70718519 7.84922222 55.1047037 7.84922222 62.5515185 20.2266667 55.1047037 32.6041111 17.368 32.6041111 13.5443704 26.2642963 36.2872222 26.2642963 34.4756296 23.4474444 11.833 23.4474444 7.80740741 17.0074074 34.6760741 17.0074074 36.2872222 14.189037 7.70718519 14.189037 7.70718519 7.84922222"></polyline>
                    <path d="M47.834037,26.2855556 C51.1945185,26.2855556 53.9187407,23.5613333 53.9187407,20.2023704 C53.9187407,16.8418889 51.1945185,14.1176667 47.834037,14.1176667 C44.4735556,14.1176667 41.7508519,16.8418889 41.7508519,20.2023704 C41.7508519,23.5613333 44.4735556,26.2855556 47.834037,26.2855556" id="Fill-4" fill="#D8232A"></path>
                    <polygon id="Fill-5" fill="#1A1919" points="69.7978889 39.5482963 267.036741 39.5482963 267.036741 0.100222222 69.7978889 0.100222222"></polygon>
                    <path d="M249.526704,31.8995185 L258.382704,31.8995185 L258.382704,13.1822593 C258.382704,9.56059259 255.966741,7.44681481 245.300667,7.44681481 C236.142481,7.44681481 235.135704,9.15666667 234.431111,11.1702222 C233.720444,9.18248148 233.398519,7.75659259 223.36263,7.749 C213.698778,7.74140741 210.481037,9.35862963 210.481037,13.7866296 L210.481037,32.3019259 L219.337037,32.3019259 L219.337037,17.0074074 C219.337037,15.0940741 220.444037,13.6848889 224.569852,13.6848889 C229.467074,13.6848889 230.205074,14.5914444 230.205074,17.1076296 L230.205074,32.3019259 L239.061074,32.3019259 L239.061074,17.0074074 C239.061074,14.6916667 240.066333,13.5846667 244.394111,13.5846667 C248.721889,13.5846667 249.426481,14.6916667 249.526704,16.9056667 L249.526704,31.8995185" id="Fill-6" fill="#FFFFFE"></path>
                    <path d="M174.353963,13.4844444 C174.353963,9.25840741 178.58,7.84922222 189.65,7.84922222 C200.72,7.84922222 204.946037,9.25840741 204.946037,13.082037 L204.946037,27.6734815 C204.946037,31.4971111 200.72,32.9062963 189.65,32.9062963 C178.58,32.9062963 174.353963,31.4971111 174.353963,27.2710741 L174.353963,13.4844444 Z M183.209963,23.5476667 C183.209963,26.366037 185.323741,26.9688889 189.851963,26.9688889 C194.380185,26.9688889 196.191778,26.1640741 196.191778,23.6478889 L196.191778,17.1076296 C196.191778,14.5914444 194.380185,13.7866296 189.851963,13.7866296 C185.323741,13.7866296 183.209963,14.3894815 183.209963,17.2078519 L183.209963,23.5476667 L183.209963,23.5476667 Z" id="Fill-7" fill="#FFFFFE"></path>
                    <path d="M161.121593,17.4584074 C161.121593,17.4098148 169.825741,17.4584074 169.825741,17.4584074 L169.825741,13.082037 C169.825741,9.45885185 166.756815,7.84922222 155.586593,7.84922222 C144.41637,7.84922222 141.145481,9.30851852 141.145481,13.1321481 L141.145481,26.9187778 C141.145481,30.9944815 143.20763,32.9564074 155.586593,32.9564074 C167.964037,32.9564074 169.825741,30.8441481 169.825741,27.7235926 L169.825741,22.792963 L161.019852,22.792963 C161.019852,26.4662593 159.662296,27.019 155.586593,27.019 C151.644519,27.019 150.001481,26.4495556 150.001481,23.2454815 L150.001481,16.8555556 C150.001481,13.7866296 152.517667,13.7365185 155.586593,13.7365185 C158.655519,13.7365185 161.121593,13.8367407 161.121593,17.4584074" id="Fill-8" fill="#FFFFFE"></path>
                    <path d="M128.868259,25.9621111 C128.868259,25.9621111 116.793,25.8618889 116.793,25.9621111 C116.793,26.0638519 116.793,32.3019259 116.793,32.3019259 L107.937,32.3019259 L107.937,13.6848889 C107.937,8.65403704 112.264778,7.84922222 123.032593,7.84922222 C133.798889,7.84922222 137.724259,9.25840741 137.724259,13.1822593 L137.724259,32.3019259 L128.868259,32.3019259 L128.868259,25.9621111 Z M116.793,19.9244815 C116.893222,19.9244815 128.868259,19.9244815 128.868259,19.9244815 L128.868259,16.7052222 C128.868259,14.3894815 127.158407,13.5846667 122.930852,13.5846667 C118.973593,13.5846667 116.793,14.0888148 116.793,16.3028148 L116.793,19.9244815 L116.793,19.9244815 Z" id="Fill-9" fill="#FFFFFE"></path>
                    <path d="M79.0547778,32.2017037 L87.8105556,32.2017037 L87.8105556,26.2642963 L103.911407,26.2642963 L103.911407,20.1264444 L87.9107778,20.1264444 L87.9107778,17.510037 C88.0125185,15.296037 89.5219259,14.5914444 91.533963,14.5914444 C91.533963,14.5914444 104.313815,14.4912222 104.313815,14.5914444 C104.313815,14.6916667 104.313815,8.55381481 104.313815,8.55381481 L85.998963,8.55381481 C81.1685556,8.55381481 79.0547778,9.69422222 79.0547778,15.6984444 L79.0547778,32.2017037" id="Fill-10" fill="#FFFFFE"></path>
                </g>
            </g>
        </g>
    </g>
</svg>