<?xml version="1.0" encoding="UTF-8"?>
<svg width="255px" height="34px" viewBox="0 0 255 34" version="1.1" xmlns="http://www.w3.org/2000/svg" xmlns:xlink="http://www.w3.org/1999/xlink">
    <!-- Generator: Sketch 47.1 (45422) - http://www.bohemiancoding.com/sketch -->
    <title>Festool</title>
    <desc>Created with Sketch.</desc>
    <defs></defs>
    <g id="Page-1" stroke="none" stroke-width="1" fill="none" fill-rule="evenodd">
        <g id="DISTRIBUTORS" transform="translate(-450.000000, -224.000000)" fill="#51AF46">
            <g id="Group" transform="translate(415.000000, 189.000000)">
                <g id="Festool" transform="translate(35.000000, 35.000000)">
                    <path d="M1.60162579,33.1402299 C1.00360378,33.1402299 0.521072797,32.6546954 0.521072797,32.0565042 L0.521072797,1.71059971 C0.521072797,1.11082183 1.00360378,0.625287356 1.60162579,0.625287356 L31.8586917,0.625287356 C32.4567137,0.625287356 32.9392447,1.11082183 32.9392447,1.71059971 L32.9392447,6.04550225 C32.9392447,6.64369342 32.4567137,7.12922789 31.8586917,7.12922789 L10.2460497,7.12922789 C9.6496098,7.12922789 9.16549674,7.61476236 9.16549674,8.21295353 C9.16549674,8.81114469 9.16549674,12.5478561 9.16549674,12.5478561 C9.16549674,13.1460472 9.6496098,13.6315817 10.2460497,13.6315817 C10.8440717,13.6315817 29.6975857,13.6315817 29.6975857,13.6315817 C30.2940256,13.6315817 30.7781387,14.1171162 30.7781387,14.7153073 L30.7781387,19.0502099 C30.7781387,19.6499878 30.2940256,20.1339355 29.6975857,20.1339355 C29.1011457,20.1339355 10.2460497,20.1339355 10.2460497,20.1339355 C9.6496098,20.1339355 9.16549674,20.61947 9.16549674,21.2176612 C9.16549674,21.8158523 9.16549674,32.0565042 9.16549674,32.0565042 C9.16549674,32.6546954 8.68138369,33.1402299 8.08494375,33.1402299 C8.08494375,33.1402299 2.19806573,33.1402299 1.60162579,33.1402299" id="Fill-1"></path>
                    <path d="M223.539836,0.625287356 C222.943396,0.625287356 222.460865,1.11082183 222.460865,1.70901299 L222.460865,32.0565042 C222.460865,32.6546954 222.943396,33.1402299 223.539836,33.1402299 L253.798484,33.1402299 C254.394924,33.1402299 254.879037,32.6546954 254.879037,32.0565042 L254.879037,27.7216017 C254.879037,27.1218238 254.394924,26.6378761 253.798484,26.6378761 L232.185842,26.6378761 C231.58782,26.6378761 231.103707,26.1507549 231.103707,25.5541504 C231.103707,24.9543726 231.078394,1.59476959 231.078394,1.59476959 C231.078394,1.59476959 231.152751,0.628460784 230.023154,0.625287356 C230.023154,0.625287356 224.136276,0.625287356 223.539836,0.625287356" id="Fill-2"></path>
                    <path d="M34.1860974,1.71059971 C34.1860974,1.11082183 34.6732696,0.625287356 35.2770437,0.625287356 L68.0070286,0.625287356 C68.6092053,0.625287356 69.0979748,1.11082183 69.0979748,1.71059971 L69.0979748,6.04550225 C69.0979748,6.64369342 68.6092053,7.12922789 68.0070286,7.12922789 L44.0046137,7.12922789 C43.4024369,7.12922789 42.9120702,7.61476236 42.9120702,8.21295353 L42.9120702,12.5478561 C42.9120702,13.1460472 43.4024369,13.6315817 44.0046137,13.6315817 L65.8251361,13.6315817 C66.4273128,13.6315817 66.9160823,14.1171162 66.9160823,14.7153073 L66.9160823,19.0502099 C66.9160823,19.6499878 66.4273128,20.1339355 65.8251361,20.1339355 L44.0046137,20.1339355 C43.4024369,20.1339355 42.9120702,20.61947 42.9120702,21.2176612 L42.9120702,25.5525637 C42.9120702,26.1523416 43.4024369,26.6378761 44.0046137,26.6378761 L68.0070286,26.6378761 C68.6092053,26.6378761 69.0979748,27.1218238 69.0979748,27.7216017 L69.0979748,32.0565042 C69.0979748,32.6546954 68.6092053,33.1402299 68.0070286,33.1402299 L35.2770437,33.1402299 C34.6732696,33.1402299 34.1860974,32.6546954 34.1860974,32.0565042 C34.1860974,32.0565042 34.1860974,2.30879087 34.1860974,1.71059971" id="Fill-3"></path>
                    <path d="M71.5916804,13.6315817 C71.5916804,17.2223154 74.5225658,20.1339355 78.1370584,20.1339355 L95.5929971,20.1339355 C96.7972956,20.1339355 97.7747898,21.1050045 97.7747898,22.3029735 L97.7747898,24.4688381 C97.7747898,25.6668071 96.7972956,26.6378761 95.5929971,26.6378761 C95.5929971,26.6378761 82.0134939,26.6378761 81.4113446,26.6378761 C80.8075982,26.6378761 80.3204483,26.1523416 80.3204483,25.5541504 C80.3204483,24.9543726 79.8317012,24.4688381 79.2279547,24.4688381 L72.6825767,24.4688381 C72.0804275,24.4688381 71.5916804,24.9543726 71.5916804,25.5525637 L71.5916804,26.6378761 C71.5916804,30.2286098 74.5225658,33.1402299 78.1370584,33.1402299 L99.9565825,33.1402299 C103.572672,33.1402299 106.503558,30.2286098 106.503558,26.6378761 L106.503558,20.1339355 C106.503558,16.5432018 103.572672,13.6315817 99.9565825,13.6315817 L82.502241,13.6315817 C81.2963453,13.6315817 80.3204483,12.6620995 80.3204483,11.4641304 L80.3204483,9.29667916 C80.3204483,8.09871012 81.2963453,7.12922789 82.502241,7.12922789 L96.6854907,7.12922789 C97.2876399,7.12922789 97.7747898,7.61476236 97.7747898,8.21295353 C97.7747898,8.81114469 98.2635369,9.29667916 98.8656861,9.29667916 C98.8656861,9.29667916 104.810512,9.29667916 105.412661,9.29667916 C106.014811,9.29667916 106.503558,8.81114469 106.503558,8.21295353 L106.503558,7.12922789 C106.503558,3.53690748 103.572672,0.625287356 99.9565825,0.625287356 L78.1370584,0.625287356 C74.5225658,0.625287356 71.5916804,3.53690748 71.5916804,7.12922789 L71.5916804,13.6315817" id="Fill-4"></path>
                    <path d="M108.997263,1.71059971 C108.997263,1.11082183 109.48601,0.625287356 110.08816,0.625287356 L142.818244,0.625287356 C143.420394,0.625287356 143.909141,1.11082183 143.909141,1.71059971 L143.909141,6.04550225 C143.909141,6.64369342 143.420394,7.12922789 142.818244,7.12922789 L131.907684,7.12922789 C131.305534,7.12922789 130.81519,7.61476236 130.81519,8.21295353 L130.81519,32.0565042 C130.81519,32.6546954 130.329637,33.1402299 129.725891,33.1402299 L123.180513,33.1402299 C122.576767,33.1402299 122.089617,32.6546954 122.089617,32.0565042 L122.089617,8.21295353 C122.089617,7.61476236 121.600869,7.12922789 120.99872,7.12922789 L110.08816,7.12922789 C109.48601,7.12922789 108.997263,6.64369342 108.997263,6.04550225 L108.997263,1.71059971" id="Fill-5"></path>
                    <path d="M151.704566,33.1402299 C148.088476,33.1402299 145.155993,30.2286098 145.155993,26.6378761 L145.155993,7.12922789 C145.155993,3.53690748 148.088476,0.625287356 151.704566,0.625287356 L173.52409,0.625287356 C177.136985,0.625287356 180.067871,3.53690748 180.067871,7.12922789 L180.067871,26.6378761 C180.067871,30.2286098 177.136985,33.1402299 173.52409,33.1402299 L151.704566,33.1402299 Z M156.066554,26.6378761 L169.15731,26.6378761 C170.363206,26.6378761 171.342297,25.6668071 171.342297,24.4688381 L171.342297,9.29667916 C171.342297,8.09871012 170.363206,7.12922789 169.15731,7.12922789 L156.066554,7.12922789 C154.862256,7.12922789 153.884761,8.09871012 153.884761,9.29667916 L153.884761,24.4688381 C153.884761,25.6668071 154.862256,26.6378761 156.066554,26.6378761 L156.066554,26.6378761 Z" id="Fill-6"></path>
                    <path d="M190.355404,33.1402299 C186.737717,33.1402299 183.808429,30.2286098 183.808429,26.6362894 L183.808429,7.12764118 C183.808429,3.53690748 186.737717,0.625287356 190.355404,0.625287356 L212.173331,0.625287356 C215.789421,0.625287356 218.720307,3.53690748 218.720307,7.12764118 L218.720307,26.6362894 C218.720307,30.2286098 215.789421,33.1402299 212.173331,33.1402299 L190.355404,33.1402299 Z M194.717393,26.6362894 L207.809746,26.6362894 C209.015642,26.6362894 209.991539,25.6668071 209.991539,24.4688381 L209.991539,9.29667916 C209.991539,8.09871012 209.015642,7.12764118 207.809746,7.12764118 L194.717393,7.12764118 C193.511497,7.12764118 192.5356,8.09871012 192.5356,9.29667916 L192.5356,24.4688381 C192.5356,25.6668071 193.511497,26.6362894 194.717393,26.6362894 L194.717393,26.6362894 Z" id="Fill-7"></path>
                </g>
            </g>
        </g>
    </g>
</svg>