<?xml version="1.0" encoding="UTF-8"?>
<svg width="79px" height="43px" viewBox="0 0 79 43" version="1.1" xmlns="http://www.w3.org/2000/svg" xmlns:xlink="http://www.w3.org/1999/xlink">
    <!-- Generator: Sketch 47.1 (45422) - http://www.bohemiancoding.com/sketch -->
    <title>spit</title>
    <desc>Created with Sketch.</desc>
    <defs></defs>
    <g id="Page-1" stroke="none" stroke-width="1" fill="none" fill-rule="evenodd">
        <g id="DISTRIBUTORS" transform="translate(-896.000000, -497.000000)" fill="#F9A13A">
            <g id="Group-Copy-3" transform="translate(861.000000, 462.000000)">
                <g id="spit" transform="translate(35.000000, 35.000000)">
                    <polygon id="Shape" points="48.9019608 9.2745098 51.8240615 0 60.7058824 0 57.9010508 9.2745098"></polygon>
                    <polygon id="Shape" points="40.4705882 36.254902 49.5507317 36.254902 57.3333333 10.9607843 48.2531899 10.9607843"></polygon>
                    <polygon id="Shape" points="77.1117321 9.2745098 78.4117647 5.23179759 70.4956762 5.23179759 72.0319176 0 62.6985768 0 59.8627451 9.2745098"></polygon>
                    <path d="M52.4247471,32.273116 C52.1842304,32.9763515 52.1842304,34.1465108 52.7859726,35.0834274 C53.5075226,36.254902 55.3118482,36.254902 55.3118482,36.254902 L60.6050169,36.254902 L67.5827033,14.2397732 L75.762973,14.2397732 L76.7254902,10.9607843 L59.041208,10.9607843 L52.4247471,32.273116 L52.4247471,32.273116 Z" id="Shape"></path>
                    <path d="M47.2156863,10.9607843 L6.4222702,10.9607843 L8.91984446,27.8053086 L0,27.8053086 L3.33024744,36.4041968 L14.8665559,36.4041968 C14.8665559,36.4041968 16.8885713,36.5215064 17.7207992,35.4617501 C18.5534724,34.4015528 18.5534724,33.3409145 18.4345827,32.6348513 C18.3152477,31.8097144 15.8181187,14.1409352 15.8181187,14.1409352 L26.4028643,14.1409352 L17.7207992,43 L26.7595334,43 L35.4415985,14.2586859 C35.4415985,14.2586859 36.2742716,14.2586859 36.512051,14.611938 C36.6309407,14.9656311 36.512051,15.3188832 36.512051,15.6721353 C36.512051,15.9080778 30.2086705,36.4037557 30.2086705,36.4037557 L35.4415985,36.4037557 C35.4415985,36.4037557 37.3442789,36.4037557 38.4147315,35.6963695 C39.3662944,34.8721146 39.9611882,34.2829201 40.436747,32.8694707 C40.7934161,31.574654 47.2156863,10.9607843 47.2156863,10.9607843 L47.2156863,10.9607843 Z" id="Shape"></path>
                    <path d="M47.2173942,6.0661682 C46.2733218,4.83226173 44.1497114,5.07895063 44.1497114,5.07895063 C44.1497114,5.07895063 10.8752487,5.07895063 9.81322261,5.07895063 C8.75119648,5.07895063 8.1614274,5.44898398 7.57121653,6.0661682 C6.86305186,6.68289045 6.86305186,7.67010802 6.74509804,8.16394778 C6.74509804,8.65732559 6.98100567,9.2745098 6.98100567,9.2745098 L47.807605,9.2745098 C48.1614665,8.16348582 48.2794203,7.42341912 47.2173942,6.0661682 L47.2173942,6.0661682 Z" id="Shape"></path>
                </g>
            </g>
        </g>
    </g>
</svg>