<?xml version="1.0" encoding="UTF-8"?>
<svg width="70px" height="51px" viewBox="0 0 70 51" version="1.1" xmlns="http://www.w3.org/2000/svg" xmlns:xlink="http://www.w3.org/1999/xlink">
    <!-- Generator: Sketch 47.1 (45422) - http://www.bohemiancoding.com/sketch -->
    <title>IGW</title>
    <desc>Created with Sketch.</desc>
    <defs></defs>
    <g id="CMS" stroke="none" stroke-width="1" fill="none" fill-rule="evenodd">
        <g id="LOGIN" transform="translate(-585.000000, -100.000000)">
            <g id="IGW" transform="translate(585.000000, 100.000000)">
                <g id="Group-2" transform="translate(21.000000, 0.000000)" fill="#FFFFFF">
                    <path d="M14,20.7391304 C21.7319865,20.7391304 28,19.1576761 28,11.5217391 C28,3.88580215 21.7319865,0 14,0 C6.2680135,0 0,3.88580215 0,11.5217391 C0,19.1576761 6.2680135,20.7391304 14,20.7391304 Z" id="Oval-3"></path>
                    <path d="M14,50.7139731 C21.7319865,50.7139731 28,49.1325187 28,41.4965818 C28,33.8606448 21.7319865,29.9748426 14,29.9748426 C6.2680135,29.9748426 0,33.8606448 0,41.4965818 C0,49.1325187 6.2680135,50.7139731 14,50.7139731 Z" id="Oval-3" transform="translate(14.000000, 40.344408) scale(1, -1) translate(-14.000000, -40.344408) "></path>
                </g>
                <g id="Group-3" transform="translate(0.000000, 14.000000)" fill="#F2586B">
                    <path d="M61.6225411,20.7983829 C66.9137853,20.7983829 74.3967346,19.699537 74.3967346,14.3808172 C74.3967346,9.06209748 66.9137853,4.75042322 61.6225411,4.75042322 C56.3312969,4.75042322 48.8483475,9.06209748 48.8483475,14.3808172 C48.8483475,19.699537 56.3312969,20.7983829 61.6225411,20.7983829 Z" id="Oval-3" transform="translate(61.622541, 12.774403) scale(1, -1) rotate(-270.000000) translate(-61.622541, -12.774403) "></path>
                    <path d="M8.20318625,20.7983829 C13.4944305,20.7983829 20.9773798,19.699537 20.9773798,14.3808172 C20.9773798,9.06209748 13.4944305,4.75042322 8.20318625,4.75042322 C2.91194203,4.75042322 -4.5710073,9.06209748 -4.5710073,14.3808172 C-4.5710073,19.699537 2.91194203,20.7983829 8.20318625,20.7983829 Z" id="Oval-3" transform="translate(8.203186, 12.774403) scale(-1, -1) rotate(-270.000000) translate(-8.203186, -12.774403) "></path>
                </g>
            </g>
        </g>
    </g>
</svg>