<?xml version="1.0" encoding="UTF-8"?>
<svg width="403px" height="64px" viewBox="0 0 403 64" version="1.1" xmlns="http://www.w3.org/2000/svg" xmlns:xlink="http://www.w3.org/1999/xlink">
    <!-- Generator: Sketch 47.1 (45422) - http://www.bohemiancoding.com/sketch -->
    <title>madeBy</title>
    <desc>Created with Sketch.</desc>
    <defs></defs>
    <g id="Logo" stroke="none" stroke-width="1" fill="none" fill-rule="evenodd">
        <g id="MADE-BY" transform="translate(-272.000000, -690.000000)">
            <g id="madeBy" transform="translate(266.000000, 682.000000)">
                <g id="Group-2" fill-opacity="0.299847147" fill="#858585">
                    <path d="M12.3825001,58 L12.3825001,38.135 C12.3825001,33.203 15.4650001,29.778 20.0545001,29.778 C24.9865001,29.778 27.0415001,33.066 27.0415001,37.313 L27.0415001,58 L33.4805001,58 L33.4805001,38.0665 C33.4805001,33.34 36.5630001,29.778 41.0840001,29.778 C45.9475001,29.778 48.0710001,32.9975 48.0710001,37.313 L48.0710001,58 L54.4415001,58 L54.4415001,36.628 C54.4415001,27.997 48.8245001,24.0925 43.0705001,24.0925 C38.8920001,24.0925 34.6450001,25.5995 32.0420001,30.326 C30.2610001,26.079 26.2880001,24.0925 22.1780001,24.0925 C18.3420001,24.0925 14.2320001,25.805 12.1770001,29.4355 L12.1770001,25.0515 L6.01200008,25.0515 L6.01200008,58 L12.3825001,58 Z M61.0615001,49.1635 C61.0615001,43.2725 65.3770001,39.9845 71.0625001,39.1625 L79.9675001,37.861 C81.9540001,37.587 82.5020001,36.5595 82.5020001,35.395 C82.5020001,32.1755 80.3785001,29.504 75.3780001,29.504 C70.8570001,29.504 68.3225001,32.3125 67.9115001,36.1485 L61.7465001,34.71 C62.4315001,28.408 68.1170001,24.024 75.2410001,24.024 C85.1050001,24.024 88.9410001,29.641 88.9410001,36.08 L88.9410001,52.5885 C88.9410001,55.4655 89.2150001,57.178 89.3520001,58 L83.0500001,58 C82.9130001,57.178 82.7075001,55.945 82.7075001,53.5475 C81.2690001,55.8765 77.9810001,59.0275 72.0900001,59.0275 C65.3770001,59.0275 61.0615001,54.3695 61.0615001,49.1635 Z M72.9805001,53.616 C78.2550001,53.616 82.5020001,51.0815 82.5020001,43.889 L82.5020001,42.382 L72.4325001,43.889 C69.6925001,44.3 67.6375001,45.8755 67.6375001,48.821 C67.6375001,51.287 69.6925001,53.616 72.9805001,53.616 Z M101.178,41.423 C101.178,48.2045 104.6715,53.205 110.8365,53.205 C116.7275,53.205 120.358,48.0675 120.358,41.286 C120.358,34.5045 116.796,29.8465 110.905,29.8465 C105.014,29.8465 101.178,34.6415 101.178,41.423 Z M120.4265,53.5475 L120.4265,52.9995 C118.851,56.1505 115.3575,58.8905 110.22,58.8905 C100.5615,58.8905 94.602,51.2185 94.602,41.423 C94.602,32.107 100.904,24.161 110.22,24.161 C116.0425,24.161 119.1935,27.038 120.2895,29.7095 L120.2895,8.406 L126.66,8.406 L126.66,51.9035 C126.66,55.0545 126.934,57.452 127.0025,58 L120.769,58 C120.632,57.2465 120.4265,55.534 120.4265,53.5475 Z M140.1985,38.135 L158.214,38.135 C158.077,33.4085 154.9945,29.7095 149.172,29.7095 C143.7605,29.7095 140.4725,33.888 140.1985,38.135 Z M159.173,46.6975 L164.7215,48.6155 C162.872,54.438 157.5975,59.0275 149.9255,59.0275 C141.089,59.0275 133.3485,52.5885 133.3485,41.423 C133.3485,31.0795 140.815,24.024 149.1035,24.024 C159.2415,24.024 164.927,31.011 164.927,41.286 C164.927,42.108 164.8585,42.93 164.79,43.341 L139.993,43.341 C140.13,49.232 144.377,53.342 149.9255,53.342 C155.2685,53.342 157.94,50.3965 159.173,46.6975 Z M193.4425,58 L187.072,58 L187.072,8.406 L193.4425,8.406 L193.4425,29.7095 C195.018,26.764 198.854,24.0925 204.334,24.0925 C214.335,24.0925 219.4725,31.7645 219.4725,41.3545 C219.4725,51.15 213.924,58.8905 204.1285,58.8905 C199.265,58.8905 195.4975,56.767 193.4425,53.205 L193.4425,58 Z M212.8965,41.3545 C212.8965,34.2305 209.129,29.778 203.1695,29.778 C197.484,29.778 193.374,34.2305 193.374,41.3545 C193.374,48.4785 197.484,53.1365 203.1695,53.1365 C209.0605,53.1365 212.8965,48.4785 212.8965,41.3545 Z M232.9425,71.7685 L254.383,25.0515 L247.4645,25.0515 L237.6005,47.7935 L227.3255,25.0515 L219.9275,25.0515 L234.107,54.3695 L225.887,71.7685 L232.9425,71.7685 Z" id="made-by"></path>
                </g>
                <g id="Group" transform="translate(271.000000, 8.000000)">
                    <path d="M9.15756216,50.027689 L9.15756216,16.8349308 L1.23936932,16.8349308 L1.23936932,50.027689 L9.15756216,50.027689 Z M0,5.1799787 C0,8.04259851 2.34103093,10.2917998 5.16403881,10.2917998 C8.05590055,10.2917998 10.3969315,8.04259851 10.3969315,5.1799787 C10.3969315,2.31735889 8.05590055,0 5.16403881,0 C2.34103093,0 0,2.31735889 0,5.1799787 Z M12.1759944,51.8679446 L19.5433565,49.9595314 C20.0941873,54.0489883 23.3303183,57.1160809 27.9435263,57.1160809 C34.2780806,57.1160809 37.4453577,53.9126731 37.4453577,47.1650692 L37.4453577,43.6890309 C35.9994268,46.2790202 32.6255881,48.5282215 27.7369647,48.5282215 C18.7859641,48.5282215 12.2448483,41.7124601 12.2448483,32.3748669 C12.2448483,23.514377 18.5105487,16.2215122 27.7369647,16.2215122 C32.9698574,16.2215122 36.2059884,18.3343983 37.6519193,21.0607029 L37.6519193,16.8349308 L45.3635506,16.8349308 L45.3635506,46.8924388 C45.3635506,55.7529286 40.7503425,64 28.1500878,64 C19.2679411,64 13.0710945,58.5473908 12.1759944,51.8679446 Z M29.0451879,41.7806177 C34.1403729,41.7806177 37.6519193,38.1001065 37.6519193,32.3748669 C37.6519193,26.7177849 34.0026652,23.0372737 29.0451879,23.0372737 C23.9500029,23.0372737 20.3007488,26.7177849 20.3007488,32.3748669 C20.3007488,38.1682641 23.8122952,41.7806177 29.0451879,41.7806177 Z M58.1592297,50.027689 L58.1592297,16.8349308 L50.2410368,16.8349308 L50.2410368,50.027689 L58.1592297,50.027689 Z M49.0016675,5.1799787 C49.0016675,8.04259851 51.3426984,10.2917998 54.1657063,10.2917998 C57.057568,10.2917998 59.398599,8.04259851 59.398599,5.1799787 C59.398599,2.31735889 57.057568,0 54.1657063,0 C51.3426984,0 49.0016675,2.31735889 49.0016675,5.1799787 Z M71.1521342,6.67944622 L63.2339413,6.67944622 L63.2339413,11.8580697 C63.2339413,13.8119213 63.2339413,17.8109531 63.2339413,23.8551651 L63.2339413,40.5537806 C63.2339413,46.7561235 67.089757,50.4366347 73.2866036,50.4366347 C76.1784653,50.4366347 77.69325,49.8913738 78.175227,49.686901 L78.175227,43.14377 C77.8309577,43.2119276 76.5227346,43.4164004 75.4210729,43.4164004 C72.4603574,43.4164004 71.1521342,42.1895634 71.1521342,39.2587859 L71.1521342,23.8551651 L78.1063731,23.8551651 L78.1063731,16.8349308 L71.1521342,16.8349308 L71.1521342,6.67944622 Z M80.1340102,41.0308839 C80.1340102,35.1011715 84.5406566,31.829606 90.2555262,31.0117146 L98.8622576,29.7167199 C100.790165,29.4440895 101.340996,28.4898829 101.340996,27.3312034 C101.340996,24.5367412 99.4130884,22.2875399 95.0064419,22.2875399 C90.806357,22.2875399 88.4653261,24.9456869 88.1210569,28.28541 L80.8225487,26.6496273 C81.4422333,20.9243876 86.675126,15.8125666 94.9375881,15.8125666 C105.265666,15.8125666 109.190335,21.6059638 109.190335,28.2172524 L109.190335,44.7113951 C109.190335,47.7103301 109.534604,49.686901 109.603458,50.027689 L102.167242,50.027689 C102.098389,49.8232162 101.822973,48.4600639 101.822973,45.8019169 C100.239335,48.3237487 96.9343498,51.0500532 91.4948956,51.0500532 C84.4718028,51.0500532 80.1340102,46.2790202 80.1340102,41.0308839 Z M93.0096803,44.8477103 C97.4851806,44.8477103 101.340996,42.7348243 101.340996,36.2598509 L101.340996,34.7603834 L92.5965572,36.0553781 C90.1178185,36.4643237 88.1210569,37.827476 88.1210569,40.5537806 C88.1210569,42.8029819 89.8424031,44.8477103 93.0096803,44.8477103 Z M123.012987,50.027689 L123.012987,0.681576145 L115.02594,0.681576145 L115.02594,50.027689 L123.012987,50.027689 Z" id="igital." fill="#FFFFFF"></path>
                    <path d="M127.168831,44.5006772 C127.168831,47.4837065 129.555255,49.8701299 132.538284,49.8701299 C135.521313,49.8701299 137.974026,47.4837065 137.974026,44.5006772 C137.974026,41.517648 135.521313,39.0649351 132.538284,39.0649351 C129.555255,39.0649351 127.168831,41.517648 127.168831,44.5006772 Z" id="Path" fill="#F2586B"></path>
                </g>
            </g>
        </g>
    </g>
</svg>