<?xml version="1.0" encoding="UTF-8"?>
<svg width="129px" height="23px" viewBox="0 0 129 23" version="1.1" xmlns="http://www.w3.org/2000/svg" xmlns:xlink="http://www.w3.org/1999/xlink">
    <!-- Generator: Sketch 47.1 (45422) - http://www.bohemiancoding.com/sketch -->
    <title>MadeBy</title>
    <desc>Created with Sketch.</desc>
    <defs>
        <path d="M14.8859438,16.15 L14.8859438,10.5741 C14.8859438,8.2570875 13.2659188,6.6559 10.9865813,6.6559 C9.5549313,6.6559 8.1044438,7.4282375 7.5393188,8.954075 C6.9930313,7.296375 5.5048688,6.6559 4.0920563,6.6559 C2.8864563,6.6559 1.6996938,7.1645125 1.0592188,8.38895 L1.0403813,6.844275 L0.173856299,6.844275 L0.173856299,16.15 L1.0968938,16.15 L1.0968938,10.6306125 C1.0968938,8.84105 2.3024938,7.5412625 4.0732188,7.5412625 C5.8439438,7.5412625 7.0683813,8.84105 7.0683813,10.6306125 L7.0683813,16.15 L7.9914188,16.15 L7.9914188,10.6306125 C7.9914188,8.84105 9.2158563,7.522425 10.9865813,7.522425 C12.7573063,7.522425 13.9629063,8.7845375 13.9629063,10.5741 L13.9629063,16.15 L14.8859438,16.15 Z M25.0702938,6.844275 L25.9933313,6.844275 L25.9933313,16.15 L25.0702938,16.15 L25.0702938,14.1720625 C24.1660938,15.62255 22.7721188,16.3007 21.2651188,16.3007 C18.6655438,16.3007 16.5369063,14.3416 16.5369063,11.4971375 C16.5369063,8.652675 18.6655438,6.73125 21.2651188,6.73125 C22.7721188,6.73125 24.2979563,7.4282375 25.0702938,8.878725 L25.0702938,6.844275 Z M21.2651188,7.6166125 C19.1553188,7.6166125 17.4599438,9.1612875 17.4599438,11.4971375 C17.4599438,13.8329875 19.1553188,15.3965 21.2651188,15.3965 C26.4454313,15.3965 26.4454313,7.6166125 21.2651188,7.6166125 Z M32.2594813,7.5789375 C30.1685188,7.5789375 28.4543063,8.878725 28.4543063,11.4971375 C28.4543063,14.077875 30.1685188,15.3965 32.2594813,15.3965 C34.4446313,15.3965 36.0646563,13.7953125 36.0646563,11.4783 C36.0646563,9.1612875 34.4069563,7.5789375 32.2594813,7.5789375 Z M36.0834938,2.96375 L36.9876938,2.96375 L36.9876938,16.15 L36.0834938,16.15 L36.0834938,14.0967125 C35.3111563,15.509525 33.7853188,16.3007 32.2029688,16.3007 C29.6033938,16.3007 27.5501063,14.5864875 27.5501063,11.4971375 C27.5501063,8.426625 29.6222313,6.693575 32.2218063,6.693575 C33.8229938,6.693575 35.3299938,7.371725 36.0834938,8.878725 L36.0834938,2.96375 Z M43.6117563,16.2818625 C40.9933438,16.2818625 38.8835438,14.454625 38.8835438,11.4971375 C38.8835438,8.7091875 40.9933438,6.693575 43.6117563,6.693575 C46.2301688,6.693575 48.5660188,8.2947625 48.2081063,11.9304 L39.8254188,11.9304 C40.0137938,14.11555 41.6903313,15.3776625 43.6117563,15.3776625 C44.8361938,15.3776625 46.2678438,14.8878875 46.9648313,13.96485 L47.6241438,14.4923 C46.7199438,15.6790625 45.0999188,16.2818625 43.6117563,16.2818625 Z M39.8254188,11.1203875 L47.3792563,11.1203875 C47.3604188,8.8222125 45.8534188,7.5412625 43.6117563,7.5412625 C41.6903313,7.5412625 40.0326313,8.84105 39.8254188,11.1203875 Z M59.6289938,7.5789375 C57.4815188,7.5789375 55.8238188,9.1612875 55.8238188,11.4783 C55.8238188,13.7953125 57.4438438,15.3965 59.6289938,15.3965 C61.7199563,15.3965 63.4341688,14.077875 63.4341688,11.4971375 C63.4341688,8.878725 61.7199563,7.5789375 59.6289938,7.5789375 Z M54.9007813,2.96375 L55.8049813,2.96375 L55.8049813,8.878725 C56.5584813,7.371725 58.0654813,6.693575 59.6666688,6.693575 C62.2662438,6.693575 64.3383688,8.426625 64.3383688,11.4971375 C64.3383688,14.5864875 62.2850813,16.3007 59.6855063,16.3007 C58.1031563,16.3007 56.5773188,15.509525 55.8049813,14.0967125 L55.8049813,16.15 L54.9007813,16.15 L54.9007813,2.96375 Z M72.7143188,6.844275 L70.3784688,12.3259875 L69.3047313,15.0385875 L68.2121563,12.344825 L66.0458438,6.844275 L65.0474563,6.844275 L68.7772813,16.036975 L67.0630688,20.030525 L68.0426188,20.030525 L73.7127063,6.844275 L72.7143188,6.844275 Z M81.5942062,5.26 L81.5942062,16.15 L78.9102062,16.15 L78.9102062,5.26 L81.5942062,5.26 Z M78.6682062,2.246 C78.6682062,0.156 81.8362062,0.156 81.8362062,2.246 C81.8362062,4.336 78.6682062,4.336 78.6682062,2.246 Z M91.0102062,5.568 L92.0882062,4.204 L94.0682062,5.7 L92.8582062,7.24 C93.6942062,8.186 94.0022062,9.264 94.0022062,10.452 C94.0022062,11.794 93.4962062,13.686 91.7142062,14.5 C93.5182062,15.402 93.9582062,16.7 93.9582062,18.086 C93.9582062,21.078 91.6702062,22.926 88.5242062,22.926 C85.3782062,22.926 83.0242062,21.012 83.0242062,18.086 L85.6862062,18.086 C85.6862062,19.494 86.9842062,20.418 88.5242062,20.418 C90.0642062,20.418 91.2742062,19.582 91.2742062,18.086 C91.2742062,16.59 89.8662062,15.908 88.5242062,15.908 C85.1362062,15.908 83.0242062,13.84 83.0242062,10.452 C83.0242062,7.064 85.4882062,4.952 88.5242062,4.952 C89.3822062,4.952 90.2622062,5.062 91.0102062,5.568 Z M88.5242062,7.394 C86.9622062,7.394 85.6862062,8.56 85.6862062,10.452 C85.6862062,12.344 86.9622062,13.466 88.5242062,13.466 C90.0642062,13.466 91.3402062,12.322 91.3402062,10.452 C91.3402062,8.582 90.0642062,7.394 88.5242062,7.394 Z M97.9622062,5.26 L97.9622062,16.15 L95.2782062,16.15 L95.2782062,5.26 L97.9622062,5.26 Z M95.0362062,2.246 C95.0362062,0.156 98.2042062,0.156 98.2042062,2.246 C98.2042062,4.336 95.0362062,4.336 95.0362062,2.246 Z M101.042206,2.532 L101.042206,5.326 L99.0182062,5.326 L99.0182062,7.636 L101.042206,7.636 L101.042206,12.322 C101.042206,15.028 102.582206,16.37 104.936206,16.282 C105.750206,16.26 106.388206,16.128 107.158206,15.82 L106.410206,13.532 C106.014206,13.73 105.530206,13.862 105.112206,13.862 C104.276206,13.862 103.704206,13.356 103.704206,12.322 L103.704206,7.636 L106.718206,7.636 L106.718206,5.326 L103.726206,5.326 L103.726206,2.246 L101.042206,2.532 Z M116.794206,6.8 L116.882206,5.304 L119.456206,5.304 L119.456206,16.15 L116.926206,16.15 L116.794206,14.566 C116.178206,15.842 114.484206,16.458 113.274206,16.48 C110.062206,16.502 107.686206,14.522 107.686206,10.716 C107.686206,6.976 110.172206,5.018 113.340206,5.04 C114.792206,5.04 116.178206,5.722 116.794206,6.8 Z M113.582206,7.438 C111.800206,7.438 110.370206,8.648 110.370206,10.716 C110.370206,12.784 111.800206,14.016 113.582206,14.016 C117.806206,14.016 117.806206,7.438 113.582206,7.438 Z M121.282206,0.772 L121.282206,16.15 L123.944206,16.15 L123.944206,0.772 L121.282206,0.772 Z M125.792206,14.764 C125.792206,16.854 128.960206,16.854 128.960206,14.764 C128.960206,12.674 125.792206,12.674 125.792206,14.764 Z" id="path-1"></path>
    </defs>
    <g id="CMS" stroke="none" stroke-width="1" fill="none" fill-rule="evenodd">
        <g id="LOGIN" transform="translate(-556.000000, -848.000000)">
            <g id="MadeBy" transform="translate(556.000000, 848.000000)">
                <g id="Container">
                    <mask id="mask-2" fill="white">
                        <use xlink:href="#path-1"></use>
                    </mask>
                    <use id="madeByIgital" fill="#747D8B" xlink:href="#path-1"></use>
                    <rect id="Dot" fill="#F2586B" mask="url(#mask-2)" x="125" y="9" width="9" height="12"></rect>
                    <rect id="Mask" fill="#FFFFFF" mask="url(#mask-2)" x="76" y="-1" width="49" height="26"></rect>
                </g>
            </g>
        </g>
    </g>
</svg>