<?xml version="1.0" encoding="UTF-8"?>
<svg width="28px" height="27px" viewBox="0 0 28 27" version="1.1" xmlns="http://www.w3.org/2000/svg" xmlns:xlink="http://www.w3.org/1999/xlink">
    <!-- Generator: Sketch 47.1 (45422) - http://www.bohemiancoding.com/sketch -->
    <title>icons/menu/categories</title>
    <desc>Created with Sketch.</desc>
    <defs></defs>
    <g id="CMS" stroke="none" stroke-width="1" fill="none" fill-rule="evenodd">
        <g id="Menu" transform="translate(-32.000000, -328.000000)" stroke="#04152D" stroke-width="0.5" fill="#04152D" fill-rule="nonzero">
            <g id="icons/menu/categories" transform="translate(33.000000, 329.000000)">
                <path d="M0.528169014,3.14876761 C0.819806338,3.14876761 1.05633803,2.91232394 1.05633803,2.62059859 C1.05633803,1.80580986 1.71919014,1.14295775 2.53397887,1.14295775 L7.25889085,1.14295775 L10.9774648,5.20519366 C11.0775528,5.31452465 11.2189261,5.37676056 11.3670775,5.37676056 L23.4205986,5.37676056 C24.2353873,5.37676056 24.8982394,6.03961268 24.8982394,6.85440141 C24.8982394,7.14612676 25.1347711,7.38257042 25.4264085,7.38257042 C25.7180458,7.38257042 25.9545775,7.14612676 25.9545775,6.85440141 C25.9545775,5.45713028 24.8178697,4.32042254 23.4205986,4.32042254 L11.5995599,4.32042254 L7.88107394,0.25818662 C7.78098592,0.148855634 7.63961268,0.0866197183 7.49146127,0.0866197183 L2.53397887,0.0866197183 C1.13670775,0.0866197183 0,1.22332746 0,2.62059859 C0,2.91223592 0.23653169,3.14876761 0.528169014,3.14876761 Z" id="Shape"></path>
                <path d="M23.4205106,7.84366197 L11.5995599,7.84366197 L7.88107394,3.78142606 C7.78098592,3.67209507 7.63961268,3.60985915 7.49146127,3.60985915 L2.53397887,3.60985915 C1.13670775,3.60985915 0,4.7465669 0,6.14375 L0,16.5863556 C0,16.877993 0.23653169,17.1145246 0.528169014,17.1145246 C0.819806338,17.1145246 1.05633803,16.877993 1.05633803,16.5863556 L1.05633803,6.14375 C1.05633803,5.32896127 1.71919014,4.66610915 2.53397887,4.66610915 L7.25889085,4.66610915 L10.9774648,8.72834507 C11.0775528,8.83767606 11.2189261,8.89991197 11.3670775,8.89991197 L23.4205986,8.89991197 C24.2353873,8.89991197 24.8982394,9.56276408 24.8982394,10.3775528 L24.8982394,22.4536092 C24.8982394,23.2683099 24.2353873,23.93125 23.4205986,23.93125 L2.53397887,23.93125 C1.71919014,23.93125 1.05633803,23.2683979 1.05633803,22.4536092 C1.05633803,22.1619718 0.819806338,21.9254401 0.528169014,21.9254401 C0.23653169,21.9254401 0,22.1619718 0,22.4536092 C0,23.8508803 1.13670775,24.987588 2.53397887,24.987588 L23.4205106,24.987588 C24.8177817,24.987588 25.9544894,23.8508803 25.9544894,22.4536092 L25.9544894,10.3776408 C25.9544894,8.98036972 24.8177817,7.84366197 23.4205106,7.84366197 Z" id="Shape"></path>
            </g>
        </g>
    </g>
</svg>