<?xml version="1.0" encoding="UTF-8"?>
<svg width="29px" height="29px" viewBox="0 0 29 29" version="1.1" xmlns="http://www.w3.org/2000/svg" xmlns:xlink="http://www.w3.org/1999/xlink">
    <!-- Generator: Sketch 47.1 (45422) - http://www.bohemiancoding.com/sketch -->
    <title>icons/menu/manufacturer</title>
    <desc>Created with Sketch.</desc>
    <defs></defs>
    <g id="CMS" stroke="none" stroke-width="1" fill="none" fill-rule="evenodd">
        <g id="Menu" transform="translate(-31.000000, -391.000000)" fill-rule="nonzero" fill="#04152D">
            <g id="icons/menu/manufacturer" transform="translate(31.000000, 391.000000)">
                <path d="M27.1084972,4.65404477 L27.1084972,2.83693559 C27.1084972,1.27261648 25.8358358,0 24.2715878,0 L16.7063638,0 C15.4734077,0 14.4217585,0.790485826 14.031447,1.89130927 L9.14125322,1.89130927 C7.57694855,1.89130927 6.30434382,3.16398239 6.30434382,4.72824486 C6.30434382,6.29256398 7.57700519,7.56518045 9.14125322,7.56518045 L16.7064205,7.56518045 C17.9393767,7.56518045 18.9910258,6.77469463 19.3813373,5.67387118 L21.2736486,5.67387118 L19.6810236,15.7608351 L17.021683,15.7608351 L17.021683,11.0325902 C17.021683,10.2552452 16.1314034,9.80891182 15.5086382,10.2760892 L9.45651572,14.8152088 L9.45651572,11.0325902 C9.45651572,10.2553018 8.56623616,9.80885518 7.94347094,10.2760892 L0.378247035,15.950017 C0.140129255,16.128607 0,16.4088114 0,16.706518 L0,28.0543737 C0,28.5766064 0.423389726,29 0.945617588,29 L28.0540581,29 C28.576286,29 28.9996757,28.5766064 28.9996757,28.0543737 L28.9996757,16.706518 C28.9997323,16.5815674 29.0699669,17.0773486 27.1084972,4.65404477 Z M26.9474675,15.7608917 L21.5956514,15.7608917 L21.8942615,13.8695825 L26.6488573,13.8695825 L26.9474675,15.7608917 Z M26.3501906,11.9782732 L22.1928716,11.9782732 L22.4914818,10.0869639 L26.0515238,10.0869639 L26.3501906,11.9782732 Z M25.7529703,8.19565464 L22.7901485,8.19565464 L23.1883331,5.67392782 L25.3547858,5.67392782 L25.7529703,8.19565464 Z M18.5976557,3.78261855 C18.0754278,3.78261855 17.6520381,4.20601218 17.6520381,4.72824486 C17.6520381,5.24968457 17.2277987,5.67387118 16.7064205,5.67387118 L9.14125322,5.67387118 C8.61981833,5.67387118 8.19563563,5.24962793 8.19563563,4.72824486 C8.19563563,4.20680516 8.61987497,3.78261855 9.14125322,3.78261855 L14.8151287,3.78261855 C15.3373565,3.78261855 15.7607463,3.35922491 15.7607463,2.83699223 C15.7607463,2.31555253 16.1849856,1.89136591 16.7063638,1.89136591 L24.2715311,1.89136591 C24.792966,1.89136591 25.2171487,2.31560917 25.2171487,2.83699223 L25.2171487,3.78261855 C24.3209785,3.78261855 19.6237031,3.78261855 18.5976557,3.78261855 Z M27.1084972,27.1087474 L1.89129182,27.1087474 L1.89129182,17.1794162 L7.56516727,12.9239561 L7.56516727,16.7065747 C7.56516727,17.4839197 8.45539018,17.9301964 9.07821205,17.4630757 L15.1303345,12.9239561 L15.1303345,16.7065747 C15.1303345,17.2288074 15.5537243,17.652201 16.0759521,17.652201 L27.1084972,17.652201 L27.1084972,27.1087474 Z" id="Shape"></path>
                <path d="M23.1666833,20 L19.8333167,20 C19.3731083,20 19,20.3731083 19,20.8333167 L19,24.1666833 C19,24.6268917 19.3731083,25 19.8333167,25 L23.1666833,25 C23.6268917,25 24,24.6268917 24,24.1666833 L24,20.8333167 C24,20.3731083 23.6268917,20 23.1666833,20 Z M22.3333167,23.3333167 L20.6666334,23.3333167 L20.6666334,21.6666334 L22.3333167,21.6666334 L22.3333167,23.3333167 Z" id="Shape"></path>
                <path d="M16.1666833,20 L12.8333167,20 C12.3731083,20 12,20.3730583 12,20.8333167 L12,24.1666833 C12,24.6268917 12.3731083,25 12.8333167,25 L16.1666833,25 C16.6268917,25 17,24.6268917 17,24.1666833 L17,20.8333167 C17.0000499,20.3731083 16.6269417,20 16.1666833,20 Z M15.3333666,23.3333167 L13.6666833,23.3333167 L13.6666833,21.6666334 L15.3333666,21.6666334 L15.3333666,23.3333167 Z" id="Shape"></path>
                <path d="M9.16663339,20 L5.8333167,20 C5.37310825,20 5,20.3731083 5,20.8333167 L5,24.1666833 C5,24.6268917 5.37310825,25 5.8333167,25 L9.1666833,25 C9.62689175,25 10,24.6268917 10,24.1666833 L10,20.8333167 C10,20.3730583 9.62689175,20 9.16663339,20 Z M8.3333167,23.3333167 L6.66663339,23.3333167 L6.66663339,21.6666334 L8.3333167,21.6666334 L8.3333167,23.3333167 Z" id="Shape"></path>
            </g>
        </g>
    </g>
</svg>