<?xml version="1.0" encoding="UTF-8"?>
<svg width="27px" height="24px" viewBox="0 0 27 24" version="1.1" xmlns="http://www.w3.org/2000/svg" xmlns:xlink="http://www.w3.org/1999/xlink">
    <!-- Generator: Sketch 47.1 (45422) - http://www.bohemiancoding.com/sketch -->
    <title>icons/menu/news</title>
    <desc>Created with Sketch.</desc>
    <defs></defs>
    <g id="CMS" stroke="none" stroke-width="1" fill="none" fill-rule="evenodd">
        <g id="Menu" transform="translate(-33.000000, -510.000000)" fill-rule="nonzero" fill="#04152D">
            <g id="icons/menu/news" transform="translate(33.000000, 510.000000)">
                <path d="M10.4457014,18.9366516 L4.2760181,18.9366516 C3.93864027,18.9366516 3.66515837,19.2101335 3.66515837,19.5475113 C3.66515837,19.8848891 3.93864027,20.158371 4.2760181,20.158371 L10.4457014,20.158371 C10.7830792,20.158371 11.0565611,19.8848891 11.0565611,19.5475113 C11.0565611,19.2101335 10.7830792,18.9366516 10.4457014,18.9366516 Z" id="Shape"></path>
                <path d="M19.6696833,18.9366516 L13.5,18.9366516 C13.1626222,18.9366516 12.8891403,19.2101335 12.8891403,19.5475113 C12.8891403,19.8848891 13.1626222,20.158371 13.5,20.158371 L19.6696833,20.158371 C20.007,20.158371 20.280543,19.8848891 20.280543,19.5475113 C20.280543,19.2101335 20.007,18.9366516 19.6696833,18.9366516 Z" id="Shape"></path>
                <path d="M19.6696833,3.66515837 L4.2760181,3.66515837 C3.93864027,3.66515837 3.66515837,3.93864027 3.66515837,4.2760181 C3.66515837,4.61339593 3.93864027,4.88687783 4.2760181,4.88687783 L19.6696833,4.88687783 C20.007,4.88687783 20.280543,4.61339593 20.280543,4.2760181 C20.280543,3.93864027 20.007,3.66515837 19.6696833,3.66515837 Z" id="Shape"></path>
                <path d="M19.6696833,6.71945701 L13.5,6.71945701 C13.1626222,6.71945701 12.8891403,6.99293891 12.8891403,7.33031674 C12.8891403,7.66769457 13.1626222,7.94117647 13.5,7.94117647 L19.6696833,7.94117647 C20.007,7.94117647 20.280543,7.66769457 20.280543,7.33031674 C20.280543,6.99293891 20.007,6.71945701 19.6696833,6.71945701 Z" id="Shape"></path>
                <path d="M19.6696833,9.77375566 L13.5,9.77375566 C13.1626222,9.77375566 12.8891403,10.0472376 12.8891403,10.3846154 C12.8891403,10.7219932 13.1626222,10.9954751 13.5,10.9954751 L19.6696833,10.9954751 C20.007,10.9954751 20.280543,10.7219932 20.280543,10.3846154 C20.280543,10.0472376 20.007,9.77375566 19.6696833,9.77375566 Z" id="Shape"></path>
                <path d="M19.6696833,12.8280543 L13.5,12.8280543 C13.1626222,12.8280543 12.8891403,13.1015362 12.8891403,13.438914 C12.8891403,13.7762919 13.1626222,14.0497738 13.5,14.0497738 L19.6696833,14.0497738 C20.007,14.0497738 20.280543,13.7762919 20.280543,13.438914 C20.280543,13.1015362 20.007,12.8280543 19.6696833,12.8280543 Z" id="Shape"></path>
                <path d="M19.6696833,15.8823529 L13.5,15.8823529 C13.1626222,15.8823529 12.8891403,16.1558348 12.8891403,16.4932127 C12.8891403,16.8305905 13.1626222,17.1040724 13.5,17.1040724 L19.6696833,17.1040724 C20.007,17.1040724 20.280543,16.8305905 20.280543,16.4932127 C20.280543,16.1558348 20.007,15.8823529 19.6696833,15.8823529 Z" id="Shape"></path>
                <path d="M10.4457014,15.8823529 L4.2760181,15.8823529 C3.93864027,15.8823529 3.66515837,16.1558348 3.66515837,16.4932127 C3.66515837,16.8305905 3.93864027,17.1040724 4.2760181,17.1040724 L10.4457014,17.1040724 C10.7830792,17.1040724 11.0565611,16.8305905 11.0565611,16.4932127 C11.0565611,16.1558348 10.7830792,15.8823529 10.4457014,15.8823529 Z" id="Shape"></path>
                <path d="M10.4457014,6.71945701 L4.2760181,6.71945701 C3.93864027,6.71945701 3.66515837,6.99293891 3.66515837,7.33031674 L3.66515837,13.5 C3.66515837,13.8373778 3.93864027,14.1108597 4.2760181,14.1108597 L10.4457014,14.1108597 C10.7830792,14.1108597 11.0565611,13.8373778 11.0565611,13.5 L11.0565611,7.33031674 C11.0565611,6.99293891 10.7830792,6.71945701 10.4457014,6.71945701 Z M9.83484163,12.8891403 L4.88687783,12.8891403 L4.88687783,7.94117647 L9.83484163,7.94117647 L9.83484163,12.8891403 Z" id="Shape"></path>
                <path d="M25.7782805,3.05429864 L23.9457014,3.05429864 L23.9457014,1.22171946 C23.9457014,0.548063348 23.397638,0 22.7239819,0 L1.22171946,0 C0.548063348,0 0,0.548063348 0,1.22171946 L0,20.7692308 C0,22.453371 1.37015837,23.8235294 3.05429864,23.8235294 L23.9457014,23.8235294 C25.6298416,23.8235294 27,22.453371 27,20.7692308 L27,4.2760181 C27,3.60236199 26.4519367,3.05429864 25.7782805,3.05429864 Z M25.7782805,20.7692308 C25.7782805,21.7797149 24.9561855,22.60181 23.9457014,22.60181 L3.05429864,22.60181 C2.04381448,22.60181 1.22171946,21.7797149 1.22171946,20.7692308 L1.22171946,1.22171946 L22.7239819,1.22171946 L22.7239819,19.8529412 C22.7239819,20.6950113 23.4090611,21.3800905 24.2511312,21.3800905 C24.588448,21.3800905 24.861991,21.1066086 24.861991,20.7692308 C24.861991,20.4318529 24.588448,20.158371 24.2511312,20.158371 C24.0827172,20.158371 23.9457014,20.0213552 23.9457014,19.8529412 L23.9457014,4.2760181 L25.7782805,4.2760181 L25.7782805,20.7692308 Z" id="Shape"></path>
            </g>
        </g>
    </g>
</svg>