<?xml version="1.0" encoding="UTF-8"?>
<svg width="25px" height="32px" viewBox="0 0 25 32" version="1.1" xmlns="http://www.w3.org/2000/svg" xmlns:xlink="http://www.w3.org/1999/xlink">
    <!-- Generator: Sketch 47.1 (45422) - http://www.bohemiancoding.com/sketch -->
    <title>icons/pages</title>
    <desc>Created with Sketch.</desc>
    <defs></defs>
    <g id="CMS" stroke="none" stroke-width="1" fill="none" fill-rule="evenodd">
        <g id="Menu" transform="translate(-33.000000, -256.000000)" fill-rule="nonzero" fill="#04152D">
            <g id="icons/pages" transform="translate(33.000000, 256.000000)">
                <path d="M16.9802296,5.44642857 L2.50318878,5.44642857 C1.14477041,5.44642857 0.0414540816,6.5497449 0.0414540816,7.90816327 L0.0414540816,28.6798469 C0.0414540816,30.0382653 1.14477041,31.1415816 2.50318878,31.1415816 L16.9802296,31.1415816 C18.338648,31.1415816 19.4419643,30.0382653 19.4419643,28.6798469 L19.4419643,7.90816327 C19.4355867,6.5497449 18.3322704,5.44642857 16.9802296,5.44642857 Z M17.713648,28.6734694 C17.713648,29.0816327 17.3820153,29.4132653 16.973852,29.4132653 L2.49681122,29.4132653 C2.08864796,29.4132653 1.75701531,29.0816327 1.75701531,28.6734694 L1.75701531,7.90816327 C1.75701531,7.5 2.08864796,7.16836735 2.49681122,7.16836735 L16.973852,7.16836735 C17.3820153,7.16836735 17.713648,7.5 17.713648,7.90816327 L17.713648,28.6734694 Z" id="Shape"></path>
                <path d="M22.5159439,0 L8.03890306,0 C6.68048469,0 5.57716837,1.10331633 5.57716837,2.46173469 C5.57716837,2.94005102 5.95982143,3.32270408 6.43813776,3.32270408 C6.91645408,3.32270408 7.29910714,2.94005102 7.29910714,2.46173469 C7.29910714,2.05357143 7.6307398,1.72193878 8.03890306,1.72193878 L22.5159439,1.72193878 C22.9241071,1.72193878 23.2557398,2.05357143 23.2557398,2.46173469 L23.2557398,23.2334184 C23.2557398,23.6415816 22.9241071,23.9732143 22.5159439,23.9732143 C22.0376276,23.9732143 21.6549745,24.3558673 21.6549745,24.8341837 C21.6549745,25.3125 22.0376276,25.6951531 22.5159439,25.6951531 C23.8743622,25.6951531 24.9776786,24.5918367 24.9776786,23.2334184 L24.9776786,2.46173469 C24.9776786,1.10331633 23.8743622,0 22.5159439,0 Z" id="Shape"></path>
            </g>
        </g>
    </g>
</svg>