<?xml version="1.0" encoding="UTF-8"?>
<svg width="31px" height="31px" viewBox="0 0 31 31" version="1.1" xmlns="http://www.w3.org/2000/svg" xmlns:xlink="http://www.w3.org/1999/xlink">
    <!-- Generator: Sketch 47.1 (45422) - http://www.bohemiancoding.com/sketch -->
    <title>icons/menu/products</title>
    <desc>Created with Sketch.</desc>
    <defs></defs>
    <g id="CMS" stroke="none" stroke-width="1" fill="none" fill-rule="evenodd">
        <g id="Menu" transform="translate(-31.000000, -122.000000)" fill-rule="nonzero" fill="#04152D">
            <g id="icons/menu/products" transform="translate(46.500000, 137.500000) scale(-1, 1) translate(-46.500000, -137.500000) translate(31.000000, 122.000000)">
                <path d="M29.8096275,17.1438592 L17.7788402,5.10085898 C17.143529,4.46525619 16.2942183,4.11065674 15.3980951,4.11065674 C15.3245328,4.11065674 15.2509704,4.11065674 15.1774081,4.1173473 L6.4769888,4.69273508 C5.53405328,4.75295009 4.77167987,5.51567343 4.7114925,6.45904178 L4.50418043,9.5500785 C4.06280635,9.29583739 3.64149474,8.97469072 3.26030803,8.59332904 C2.33074748,7.6633418 1.75562368,6.50587567 1.63524893,5.32833787 C1.52156167,4.21101508 1.842561,3.21412228 2.53805954,2.51830449 C4.01599395,1.03969169 6.73780076,1.36752891 8.61698433,3.2408845 C8.93129617,3.55534062 9.43954511,3.55534062 9.75385695,3.2408845 C10.0681688,2.92642839 10.0681688,2.41794615 9.75385695,2.10349004 C7.23936221,-0.392087229 3.49437004,-0.713233901 1.39449944,1.38760058 C0.351251619,2.43132727 -0.130247373,3.88317785 0.030252291,5.49560177 C0.184064469,7.04112013 0.926375416,8.54649515 2.11674793,9.73741406 C2.78549653,10.4064696 3.5612449,10.9350235 4.38380568,11.2963135 L4.12968121,15.1701453 C4.06280635,16.1402758 4.4239306,17.0903348 5.11274166,17.779462 L17.1502165,29.8224622 C17.9125899,30.5851855 18.9224003,31 19.9990855,31 L19.9990855,31 C21.0757708,31 22.0855811,30.578495 22.8479546,29.8224622 L29.8230025,22.8442126 C30.5853759,22.0814893 31,21.0712154 31,19.9940359 C30.9933125,18.9101659 30.5720009,17.899892 29.8096275,17.1438592 Z M28.6794424,21.7001276 L21.697707,28.6850677 C21.2429579,29.1400255 20.6343967,29.3942666 19.9857105,29.3942666 L19.9857105,29.3942666 C19.3370244,29.3942666 18.7284632,29.1400255 18.2737141,28.6850677 L6.23623931,16.6420675 C5.87511506,16.2807775 5.68786545,15.7856764 5.72130288,15.2771942 L5.9553649,11.771343 C6.08911462,11.7914147 6.22286434,11.8114863 6.35661406,11.8248674 C6.55723864,11.8449391 6.75786322,11.8583202 6.95180031,11.8583202 C8.32273494,11.8583202 9.54654488,11.3766002 10.456043,10.4666846 C10.7703548,10.1522285 10.7703548,9.64374628 10.456043,9.32929017 C10.1417311,9.01483405 9.6334822,9.01483405 9.31917036,9.32929017 C8.62367181,10.025108 7.6272364,10.3462546 6.51042623,10.2325152 C6.35661406,10.2191341 6.20948936,10.1923718 6.06236467,10.1656096 L6.30311417,6.57947178 C6.30980165,6.43227956 6.4301764,6.31854011 6.57730109,6.305159 L15.2777204,5.72977121 C15.3178453,5.72977121 15.3579702,5.72308066 15.3980951,5.72308066 C15.8662192,5.72308066 16.3209682,5.91041622 16.648655,6.23825345 L28.6794424,18.2745631 C29.1341914,18.7295209 29.3883159,19.3383615 29.3883159,19.9873454 C29.3883159,20.6363293 29.1341914,21.2451698 28.6794424,21.7001276 Z" id="Shape"></path>
            </g>
        </g>
    </g>
</svg>