<?xml version="1.0" encoding="UTF-8"?>
<svg width="25px" height="26px" viewBox="0 0 25 26" version="1.1" xmlns="http://www.w3.org/2000/svg" xmlns:xlink="http://www.w3.org/1999/xlink">
    <!-- Generator: Sketch 47.1 (45422) - http://www.bohemiancoding.com/sketch -->
    <title>icons/settings</title>
    <desc>Created with Sketch.</desc>
    <defs></defs>
    <g id="CMS" stroke="none" stroke-width="1" fill="none" fill-rule="evenodd">
        <g id="Menu" transform="translate(-33.000000, -190.000000)" fill-rule="nonzero" fill="#04152D">
            <g id="icons/settings" transform="translate(33.000000, 190.000000)">
                <path d="M13.69289,12.6390239 L13.69289,0.728862974 C13.69289,0.323939099 13.368478,0 12.962963,0 C12.557448,0 12.233036,0.323939099 12.233036,0.728862974 L12.233036,12.6390239 C10.5406867,12.9791599 9.25925926,14.4746788 9.25925926,16.2671418 C9.25925926,18.0596048 10.5406867,19.5551236 12.233036,19.8952597 L12.233036,25.197063 C12.233036,25.6019868 12.557448,25.9259259 12.962963,25.9259259 C13.368478,25.9259259 13.69289,25.6019868 13.69289,25.197063 L13.69289,19.8952597 C15.3852393,19.5551236 16.6666667,18.0596048 16.6666667,16.2671418 C16.6666667,14.4800777 15.3906461,12.9791599 13.69289,12.6390239 Z M12.962963,18.5077205 C11.7247905,18.5077205 10.7191133,17.5035093 10.7191133,16.2671418 C10.7191133,15.0307742 11.7247905,14.026563 12.962963,14.026563 C14.2011354,14.026563 15.2068127,15.0307742 15.2068127,16.2671418 C15.2068127,17.5035093 14.2011354,18.5077205 12.962963,18.5077205 Z" id="Shape"></path>
                <path d="M4.43363071,6.52737285 L4.43363071,0.728862974 C4.43363071,0.323939099 4.10921871,0 3.7037037,0 C3.2981887,0 2.9737767,0.323939099 2.9737767,0.728862974 L2.9737767,6.52737285 C1.28142741,6.86750891 0,8.36302775 0,10.1554908 C0,11.9479538 1.28142741,13.4434726 2.9737767,13.7836087 L2.9737767,25.197063 C2.9737767,25.6019868 3.2981887,25.9259259 3.7037037,25.9259259 C4.10921871,25.9259259 4.43363071,25.6019868 4.43363071,25.197063 L4.43363071,13.7782097 C6.12597999,13.4380736 7.40740741,11.9425548 7.40740741,10.1500918 C7.40740741,8.35762877 6.12597999,6.86750891 4.43363071,6.52737285 Z M3.7037037,12.3960695 C2.46553122,12.3960695 1.45985401,11.3918583 1.45985401,10.1554908 C1.45985401,8.9191232 2.46553122,7.914912 3.7037037,7.914912 C4.94187618,7.914912 5.94755339,8.9191232 5.94755339,10.1554908 C5.94755339,11.3918583 4.93646932,12.3960695 3.7037037,12.3960695 Z" id="Shape"></path>
                <path d="M22.0262233,6.52601383 L22.0262233,0.728711222 C22.0262233,0.323871654 21.7018113,0 21.2962963,0 C20.8907813,0 20.5663693,0.323871654 20.5663693,0.728711222 L20.5663693,6.52601383 C18.87402,6.86607907 17.5925926,8.36128654 17.5925926,10.1533764 C17.5925926,11.9454662 18.87402,13.4406737 20.5663693,13.7807389 L20.5663693,25.1972147 C20.5663693,25.6020543 20.8907813,25.9259259 21.2962963,25.9259259 C21.7018113,25.9259259 22.0262233,25.6020543 22.0262233,25.1972147 L22.0262233,13.775341 C23.7185726,13.4352758 25,11.9400683 25,10.1479785 C25,8.35588868 23.7239795,6.86607907 22.0262233,6.52601383 Z M21.2962963,12.3934886 C20.0581238,12.3934886 19.0524466,11.3894865 19.0524466,10.1533764 C19.0524466,8.91726621 20.0581238,7.91326409 21.2962963,7.91326409 C22.5344688,7.91326409 23.540146,8.91726621 23.540146,10.1533764 C23.540146,11.3894865 22.5344688,12.3934886 21.2962963,12.3934886 Z" id="Shape"></path>
            </g>
        </g>
    </g>
</svg>