<?xml version="1.0" encoding="UTF-8"?>
<svg width="30px" height="28px" viewBox="0 0 30 28" version="1.1" xmlns="http://www.w3.org/2000/svg" xmlns:xlink="http://www.w3.org/1999/xlink">
    <!-- Generator: Sketch 47.1 (45422) - http://www.bohemiancoding.com/sketch -->
    <title>icons/menu/users</title>
    <desc>Created with Sketch.</desc>
    <defs></defs>
    <g id="CMS" stroke="none" stroke-width="1" fill="none" fill-rule="evenodd">
        <g id="Menu" transform="translate(-32.000000, -449.000000)" stroke="#04152D" stroke-width="0.5" fill="#04152D" fill-rule="nonzero">
            <g id="icons/menu/users" transform="translate(33.000000, 450.000000)">
                <path d="M25.9079333,20.8236364 L21.3472,18.8225818 C21.2398667,18.7682182 21.1208667,18.6353818 21.0186667,18.4581091 L24.0636667,18.4557455 C24.1168667,18.4609455 25.3722,18.5772364 26.3788,18.1390182 C26.7600667,17.9726182 27.0438,17.6440727 27.1576667,17.2375273 C27.2724667,16.8272 27.1996667,16.3927636 26.9588667,16.0448364 C26.0885333,14.7902182 24.0571333,11.5118545 23.9936667,8.18669091 C23.9922667,8.12949091 23.8084,2.47472727 18.2956667,2.42887273 C17.4841333,2.43549091 16.7337333,2.57494545 16.051,2.83210909 C15.9021333,2.44778182 15.6828,2.04690909 15.3566,1.66967273 C14.3985333,0.5616 12.8431333,0 10.7333333,0 C8.62353333,0 7.06813333,0.5616 6.1096,1.66872727 C5.00453333,2.94556364 5.1072,4.49374545 5.13333333,4.75327273 L5.13333333,7.26770909 C4.83466667,7.61232727 4.66666667,8.05338182 4.66666667,8.50861818 L4.66666667,10.3995273 C4.66666667,10.9748364 4.92473333,11.5113818 5.36526667,11.8692364 C5.79273333,13.5838182 6.68733333,14.8757818 7,15.2903636 L7,16.8546182 C7,17.3122182 6.7536,17.732 6.3574,17.9513455 L2.19426667,20.2516364 C0.840466667,21.0004364 0,22.4346909 0,23.9965818 L0,26 L20.5333333,26 L21.4666667,26 L28,26 L28,24.2523273 C28,22.7906545 27.1982667,21.4774182 25.9079333,20.8236364 Z M20.5333333,25.0545455 L0.933333333,25.0545455 L0.933333333,23.9965818 C0.933333333,22.7812 1.5876,21.6641455 2.64086667,21.0826909 L6.804,18.7824 C7.50073333,18.3971273 7.93333333,17.6582545 7.93333333,16.8550909 L7.93333333,14.9552 L7.8246,14.8237818 C7.8134,14.8100727 6.6696,13.4084364 6.23326667,11.4839636 L6.1908,11.2967636 L6.03166667,11.1927636 C5.76146667,11.0159636 5.6,10.7195636 5.6,10.4 L5.6,8.50909091 C5.6,8.24389091 5.71106667,7.99665455 5.91266667,7.81181818 L6.06666667,7.67141818 L6.06666667,4.72727273 L6.06246667,4.66534545 C6.06106667,4.65258182 5.9024,3.34218182 6.81146667,2.29178182 C7.58473333,1.39832727 8.90446667,0.945454545 10.7333333,0.945454545 C12.5556667,0.945454545 13.8726,1.39501818 14.6468,2.28232727 C15.0318,2.72290909 15.2254667,3.21501818 15.3220667,3.63763636 C15.3295333,3.67072727 15.3365333,3.70334545 15.3430667,3.73596364 C15.3496,3.76952727 15.3566,3.80309091 15.3617333,3.83523636 C15.3678,3.87210909 15.3729333,3.90709091 15.3780667,3.94207273 C15.3818,3.96712727 15.3855333,3.99265455 15.3883333,4.01676364 C15.3953333,4.07538182 15.4009333,4.13210909 15.4046667,4.18458182 C15.4051333,4.18883636 15.4051333,4.19261818 15.4051333,4.19687273 C15.4084,4.24792727 15.4107333,4.29614545 15.4121333,4.34010909 C15.4121333,4.34861818 15.4121333,4.35570909 15.4126,4.36421818 C15.4135333,4.40345455 15.4135333,4.4408 15.4130667,4.47341818 C15.4130667,4.47814545 15.4130667,4.48287273 15.4130667,4.4876 C15.4112,4.59869091 15.4037333,4.66487273 15.4037333,4.66629091 L15.4,7.67141818 L15.554,7.81229091 C15.7556,7.99665455 15.8666667,8.24389091 15.8666667,8.50909091 L15.8666667,10.4 C15.8666667,10.8126909 15.5997333,11.1738545 15.2030667,11.2977091 L14.9706667,11.3700364 L14.896,11.6040364 C14.5838,12.5877818 14.1390667,13.4963636 13.5734667,14.3047273 C13.4348667,14.5037455 13.3,14.6800727 13.1828667,14.8148 L13.0666667,14.9490545 L13.0666667,16.8990545 C13.0666667,17.0186545 13.0783333,17.1358909 13.0965333,17.2512364 C13.1002667,17.2758182 13.1068,17.2994545 13.1114667,17.3240364 C13.1296667,17.4190545 13.1539333,17.5121818 13.1838,17.6029455 C13.1908,17.6242182 13.1982667,17.6445455 13.2062,17.6658182 C13.2426,17.7646182 13.2850667,17.8601091 13.3345333,17.9518182 C13.3401333,17.9622182 13.3452667,17.9730909 13.3508667,17.9834909 C13.4185333,18.1045091 13.4964667,18.2193818 13.5860667,18.3252727 L13.6924667,18.4581091 L13.7106667,18.4581091 C13.8707333,18.6178909 14.0546,18.7568727 14.2636667,18.8627636 L18.7217333,21.1205091 C19.8394,21.6858909 20.5333333,22.8232727 20.5333333,24.0887636 L20.5333333,25.0545455 Z M27.0666667,25.0545455 L21.4666667,25.0545455 L21.4666667,24.0887636 C21.4666667,22.4630545 20.5748667,21.0018545 19.1398667,20.2748 L15.9394667,18.6533455 C16.0183333,18.4708727 16.0286,18.2619273 15.9595333,18.0605455 C15.8452,17.7272727 15.5465333,17.5121818 15.1988667,17.5121818 L14.1642667,17.5121818 C14.1428,17.4738909 14.1288,17.4318182 14.1115333,17.3911636 C14.0882,17.3368 14.0606667,17.2833818 14.0452667,17.2261818 C14.0168,17.1212364 14,17.0115636 14,16.8990545 L14,15.3007636 C14.1068667,15.1684 14.2193333,15.0176 14.3355333,14.8512 C14.9137333,14.0239273 15.3771333,13.1030545 15.7140667,12.1098545 C16.3725333,11.804 16.8,11.1445455 16.8,10.4 L16.8,8.50909091 C16.8,8.05385455 16.632,7.6128 16.3333333,7.26818182 L16.3333333,4.75374545 C16.3454667,4.63556364 16.3716,4.2484 16.2941333,3.74258182 C16.8952,3.50338182 17.5686,3.38 18.2961333,3.37385455 C22.8886,3.41214545 23.0561333,8.01178182 23.0608,8.2056 C23.1294,11.7902909 25.2756,15.262 26.1954,16.588 C26.2742667,16.7014545 26.2980667,16.8442182 26.2602667,16.9789455 C26.2388,17.0564727 26.1772,17.1973455 26.0106,17.2696727 C25.2266,17.6114545 24.1630667,17.5145455 24.1084667,17.5121818 L20.8964,17.5121818 C20.5963333,17.5121818 20.3228667,17.6667636 20.1646667,17.9253455 C20.0069333,18.1829818 19.992,18.4978182 20.1245333,18.7682182 C20.2706,19.0665091 20.5286667,19.4650182 20.9528667,19.6791636 L25.5014667,21.6750182 C26.467,22.1690182 27.0666667,23.1551273 27.0666667,24.2523273 L27.0666667,25.0545455 Z" id="Shape"></path>
            </g>
        </g>
    </g>
</svg>